<svg width="202" height="53" viewBox="0 0 202 53" fill="none" xmlns="http://www.w3.org/2000/svg">
<path class="header" d="M76.9355 24.4506C76.9355 23.7263 76.7484 23.181 76.374 22.8148C76.0078 22.4405 75.3364 22.0539 74.3599 21.6552C72.5776 20.9797 71.2959 20.1903 70.5146 19.287C69.7334 18.3755 69.3428 17.3013 69.3428 16.0643C69.3428 14.5669 69.8717 13.3666 70.9297 12.4633C71.9958 11.5518 73.3467 11.0961 74.9824 11.0961C76.0729 11.0961 77.0454 11.328 77.8999 11.7919C78.7544 12.2476 79.4095 12.8946 79.8652 13.7328C80.3291 14.571 80.561 15.5232 80.561 16.5892H76.9844C76.9844 15.7592 76.8053 15.1285 76.4473 14.6971C76.0973 14.2577 75.5887 14.038 74.9214 14.038C74.2948 14.038 73.8065 14.2251 73.4565 14.5995C73.1066 14.9657 72.9316 15.4621 72.9316 16.0887C72.9316 16.577 73.127 17.0205 73.5176 17.4193C73.9082 17.8099 74.5999 18.2168 75.5928 18.64C77.3262 19.2666 78.5835 20.0357 79.3647 20.9471C80.1541 21.8586 80.5488 23.0183 80.5488 24.4261C80.5488 25.9724 80.0565 27.1809 79.0718 28.0516C78.0871 28.9224 76.7484 29.3578 75.0557 29.3578C73.9082 29.3578 72.8625 29.1218 71.9185 28.6498C70.9744 28.1778 70.2339 27.5023 69.6968 26.6234C69.1678 25.7445 68.9033 24.7069 68.9033 23.5106H72.5044C72.5044 24.536 72.7038 25.2806 73.1025 25.7445C73.5013 26.2084 74.1523 26.4403 75.0557 26.4403C76.3089 26.4403 76.9355 25.7771 76.9355 24.4506ZM86.0054 15.9056L86.103 17.1263C86.8761 16.1498 87.8975 15.6615 89.167 15.6615C90.4854 15.6615 91.4172 16.2556 91.9624 17.4437C92.7192 16.2556 93.7975 15.6615 95.1973 15.6615C97.5085 15.6615 98.6925 17.2606 98.7495 20.4589V29.1136H95.2949V20.6786C95.2949 19.9136 95.1891 19.3684 94.9775 19.0428C94.766 18.7173 94.4079 18.5546 93.9033 18.5546C93.2604 18.5546 92.7803 18.9493 92.4629 19.7386L92.4873 20.1537V29.1136H89.0327V20.703C89.0327 19.9462 88.931 19.4009 88.7275 19.0673C88.5241 18.7255 88.1619 18.5546 87.6411 18.5546C87.047 18.5546 86.575 18.876 86.2251 19.5189V29.1136H82.7705V15.9056H86.0054ZM107.587 29.1136C107.49 28.9102 107.392 28.5684 107.294 28.0883C106.676 28.9346 105.838 29.3578 104.78 29.3578C103.673 29.3578 102.753 28.9916 102.021 28.2592C101.297 27.5267 100.935 26.5787 100.935 25.4149C100.935 24.0315 101.374 22.9613 102.253 22.2045C103.14 21.4476 104.414 21.0611 106.074 21.0448H107.124V19.9828C107.124 19.3887 107.022 18.9696 106.818 18.7255C106.615 18.4813 106.318 18.3593 105.927 18.3593C105.065 18.3593 104.633 18.8638 104.633 19.8729H101.179C101.179 18.6522 101.634 17.6472 102.546 16.8578C103.465 16.0603 104.625 15.6615 106.025 15.6615C107.473 15.6615 108.592 16.0399 109.382 16.7968C110.179 17.5455 110.578 18.6197 110.578 20.0194V26.2328C110.594 27.3721 110.757 28.2632 111.066 28.9061V29.1136H107.587ZM105.549 26.6478C105.931 26.6478 106.257 26.5705 106.525 26.4159C106.794 26.2613 106.993 26.0782 107.124 25.8666V23.12H106.293C105.708 23.12 105.244 23.3072 104.902 23.6815C104.568 24.0559 104.401 24.5564 104.401 25.183C104.401 26.1595 104.784 26.6478 105.549 26.6478ZM119.599 19.2382L118.452 19.1405C117.508 19.1405 116.869 19.5555 116.535 20.3856V29.1136H113.068V15.9056H116.328L116.425 17.3339C116.971 16.219 117.723 15.6615 118.684 15.6615C119.074 15.6615 119.392 15.7144 119.636 15.8202L119.599 19.2382ZM126.008 12.6586V15.9056H127.778V18.5057H126.008V25.0609C126.008 25.5817 126.077 25.9398 126.215 26.1351C126.362 26.3304 126.639 26.4281 127.045 26.4281C127.379 26.4281 127.652 26.3996 127.863 26.3427L127.839 29.0282C127.253 29.2479 126.618 29.3578 125.935 29.3578C123.705 29.3578 122.578 28.0801 122.553 25.5248V18.5057H121.027V15.9056H122.553V12.6586H126.008ZM135.615 29.1136V11.3402H140.314C142.39 11.3402 144.042 11.9994 145.271 13.3177C146.507 14.6361 147.138 16.4427 147.163 18.7377V21.6185C147.163 23.9541 146.544 25.7893 145.307 27.1239C144.078 28.4504 142.382 29.1136 140.217 29.1136H135.615ZM139.204 14.3309V26.1351H140.278C141.474 26.1351 142.316 25.8218 142.805 25.1952C143.293 24.5604 143.549 23.4699 143.574 21.9237V18.8353C143.574 17.1752 143.342 16.0196 142.878 15.3685C142.414 14.7094 141.625 14.3635 140.51 14.3309H139.204ZM154.914 29.3578C153.14 29.3578 151.757 28.8288 150.764 27.7709C149.771 26.7129 149.274 25.1993 149.274 23.2299V22.1801C149.274 20.0967 149.73 18.4895 150.642 17.3583C151.553 16.2271 152.859 15.6615 154.56 15.6615C156.22 15.6615 157.469 16.1945 158.308 17.2606C159.146 18.3186 159.573 19.8892 159.589 21.9725V23.6693H152.717C152.766 24.6459 152.981 25.362 153.364 25.8177C153.746 26.2653 154.336 26.4891 155.134 26.4891C156.289 26.4891 157.254 26.0944 158.027 25.3051L159.382 27.3925C158.959 27.9784 158.344 28.4545 157.539 28.8207C156.733 29.1788 155.858 29.3578 154.914 29.3578ZM152.741 21.2523H156.196V20.9349C156.18 20.1455 156.049 19.5474 155.805 19.1405C155.561 18.7336 155.138 18.5302 154.536 18.5302C153.933 18.5302 153.494 18.7458 153.217 19.1771C152.949 19.6084 152.79 20.3002 152.741 21.2523ZM165.705 24.2308L167.377 15.9056H170.979L167.353 29.1136H164.057L160.419 15.9056H164.033L165.705 24.2308ZM176.228 29.1136H172.761V15.9056H176.228V29.1136ZM172.602 12.4877C172.602 11.9506 172.773 11.5111 173.115 11.1693C173.457 10.8275 173.912 10.6566 174.482 10.6566C175.052 10.6566 175.507 10.8275 175.849 11.1693C176.191 11.5111 176.362 11.9506 176.362 12.4877C176.362 13.0166 176.191 13.4561 175.849 13.806C175.515 14.156 175.06 14.3309 174.482 14.3309C173.904 14.3309 173.444 14.156 173.103 13.806C172.769 13.4561 172.602 13.0166 172.602 12.4877ZM183.674 26.4891C184.675 26.4891 185.183 25.8381 185.2 24.536H188.447C188.431 25.9764 187.987 27.1402 187.116 28.0272C186.245 28.9143 185.122 29.3578 183.747 29.3578C182.046 29.3578 180.748 28.8288 179.853 27.7709C178.958 26.7129 178.502 25.1545 178.486 23.0956V22.0458C178.486 19.9706 178.925 18.3877 179.804 17.2972C180.691 16.2067 181.997 15.6615 183.723 15.6615C185.179 15.6615 186.327 16.1132 187.165 17.0165C188.003 17.9117 188.431 19.1853 188.447 20.8373H185.2C185.192 20.0967 185.069 19.5271 184.833 19.1283C184.597 18.7295 184.207 18.5302 183.662 18.5302C183.059 18.5302 182.628 18.7458 182.368 19.1771C182.107 19.6003 181.969 20.4263 181.953 21.6552V22.9979C181.953 24.0721 182.006 24.8249 182.111 25.2562C182.217 25.6794 182.392 25.9927 182.636 26.1962C182.88 26.3915 183.226 26.4891 183.674 26.4891ZM195.734 29.3578C193.96 29.3578 192.577 28.8288 191.584 27.7709C190.591 26.7129 190.095 25.1993 190.095 23.2299V22.1801C190.095 20.0967 190.55 18.4895 191.462 17.3583C192.373 16.2271 193.68 15.6615 195.38 15.6615C197.041 15.6615 198.29 16.1945 199.128 17.2606C199.966 18.3186 200.393 19.8892 200.41 21.9725V23.6693H193.537C193.586 24.6459 193.802 25.362 194.184 25.8177C194.567 26.2653 195.157 26.4891 195.954 26.4891C197.11 26.4891 198.074 26.0944 198.847 25.3051L200.202 27.3925C199.779 27.9784 199.165 28.4545 198.359 28.8207C197.553 29.1788 196.678 29.3578 195.734 29.3578ZM193.562 21.2523H197.016V20.9349C197 20.1455 196.87 19.5474 196.625 19.1405C196.381 18.7336 195.958 18.5302 195.356 18.5302C194.754 18.5302 194.314 18.7458 194.038 19.1771C193.769 19.6084 193.61 20.3002 193.562 21.2523Z" fill="currentColor"/>
<path class="under-header" d="M70.9473 45.1062L72.2363 40.8054H73.7539L71.2344 48.1062C70.8477 49.1726 70.1914 49.7058 69.2656 49.7058C69.0586 49.7058 68.8301 49.6707 68.5801 49.6003V48.4988L68.8496 48.5164C69.209 48.5164 69.4785 48.45 69.6582 48.3171C69.8418 48.1882 69.9863 47.9695 70.0918 47.6609L70.2969 47.116L68.0703 40.8054H69.6055L70.9473 45.1062ZM78.3418 45.3933L80.2168 40.8054H81.998V47.1453H80.5742V42.95L78.8281 47.1453H77.8613L76.1094 42.9265V47.1453H74.6855V40.8054H76.4785L78.3418 45.3933ZM88.9707 47.1453H87.5469V44.5847H85.0801V47.1453H83.6562V40.8054H85.0801V43.448H87.5469V40.8054H88.9707V47.1453ZM92.0234 42.821H93.418C93.9375 42.821 94.3906 42.9109 94.7773 43.0906C95.1641 43.2703 95.457 43.5222 95.6562 43.8464C95.8594 44.1707 95.9609 44.5476 95.9609 44.9773C95.9609 45.6296 95.7305 46.1531 95.2695 46.5476C94.8086 46.9421 94.1953 47.1414 93.4297 47.1453H90.5996V40.8054H92.0234V42.821ZM98.4395 47.1453H97.0156V40.8054H98.4395V47.1453ZM92.0234 43.9636V46.0085H93.4121C93.7598 46.0085 94.0332 45.9226 94.2324 45.7507C94.4355 45.575 94.5371 45.3269 94.5371 45.0066C94.5371 44.6863 94.4375 44.4343 94.2383 44.2507C94.043 44.0632 93.7773 43.9675 93.4414 43.9636H92.0234ZM102.939 47.2625C102.037 47.2625 101.305 46.9792 100.742 46.4128C100.184 45.8425 99.9043 45.0847 99.9043 44.1394V43.9636C99.9043 43.3308 100.025 42.7664 100.268 42.2703C100.514 41.7703 100.857 41.3816 101.299 41.1042C101.74 40.8269 102.232 40.6882 102.775 40.6882C103.639 40.6882 104.305 40.9636 104.773 41.5144C105.246 42.0652 105.482 42.8445 105.482 43.8523V44.4265H101.34C101.383 44.95 101.557 45.364 101.861 45.6687C102.17 45.9734 102.557 46.1257 103.021 46.1257C103.674 46.1257 104.205 45.8621 104.615 45.3347L105.383 46.0671C105.129 46.446 104.789 46.741 104.363 46.9519C103.941 47.1589 103.467 47.2625 102.939 47.2625ZM102.77 41.8308C102.379 41.8308 102.062 41.9675 101.82 42.241C101.582 42.5144 101.43 42.8953 101.363 43.3835H104.076V43.2781C104.045 42.8015 103.918 42.4421 103.695 42.2C103.473 41.9539 103.164 41.8308 102.77 41.8308ZM114.57 41.9363H112.514V47.1453H111.09V41.9363H109.057V40.8054H114.57V41.9363ZM117.939 47.2625C117.037 47.2625 116.305 46.9792 115.742 46.4128C115.184 45.8425 114.904 45.0847 114.904 44.1394V43.9636C114.904 43.3308 115.025 42.7664 115.268 42.2703C115.514 41.7703 115.857 41.3816 116.299 41.1042C116.74 40.8269 117.232 40.6882 117.775 40.6882C118.639 40.6882 119.305 40.9636 119.773 41.5144C120.246 42.0652 120.482 42.8445 120.482 43.8523V44.4265H116.34C116.383 44.95 116.557 45.364 116.861 45.6687C117.17 45.9734 117.557 46.1257 118.021 46.1257C118.674 46.1257 119.205 45.8621 119.615 45.3347L120.383 46.0671C120.129 46.446 119.789 46.741 119.363 46.9519C118.941 47.1589 118.467 47.2625 117.939 47.2625ZM117.77 41.8308C117.379 41.8308 117.062 41.9675 116.82 42.241C116.582 42.5144 116.43 42.8953 116.363 43.3835H119.076V43.2781C119.045 42.8015 118.918 42.4421 118.695 42.2C118.473 41.9539 118.164 41.8308 117.77 41.8308ZM123.869 42.8914L125.076 40.8054H126.658L124.719 43.9285L126.723 47.1453H125.152L123.887 44.9773L122.627 47.1453H121.045L123.049 43.9285L121.115 40.8054H122.686L123.869 42.8914ZM132.998 47.1453H131.574V44.5847H129.107V47.1453H127.684V40.8054H129.107V43.448H131.574V40.8054H132.998V47.1453ZM134.252 43.9167C134.252 43.2957 134.375 42.7371 134.621 42.241C134.867 41.741 135.213 41.3582 135.658 41.0925C136.104 40.823 136.615 40.6882 137.193 40.6882C138.049 40.6882 138.742 40.9636 139.273 41.5144C139.809 42.0652 140.098 42.7957 140.141 43.7058L140.146 44.0398C140.146 44.6648 140.025 45.2234 139.783 45.7156C139.545 46.2078 139.201 46.5886 138.752 46.8582C138.307 47.1277 137.791 47.2625 137.205 47.2625C136.311 47.2625 135.594 46.9656 135.055 46.3718C134.52 45.7742 134.252 44.9792 134.252 43.9871V43.9167ZM135.676 44.0398C135.676 44.6921 135.811 45.2039 136.08 45.575C136.35 45.9421 136.725 46.1257 137.205 46.1257C137.686 46.1257 138.059 45.9382 138.324 45.5632C138.594 45.1882 138.729 44.6394 138.729 43.9167C138.729 43.2761 138.59 42.7683 138.312 42.3933C138.039 42.0183 137.666 41.8308 137.193 41.8308C136.729 41.8308 136.359 42.0164 136.086 42.3875C135.812 42.7546 135.676 43.3054 135.676 44.0398ZM146.645 40.8054V47.1453H145.221V41.9539H143.428L143.311 44.1628C143.236 45.2253 143.031 45.989 142.695 46.4539C142.363 46.9148 141.854 47.1453 141.166 47.1453H140.727L140.721 45.9617L141.014 45.9324C141.326 45.8894 141.553 45.7 141.693 45.364C141.838 45.0242 141.93 44.407 141.969 43.5125L142.086 40.8054H146.645ZM147.893 43.9167C147.893 43.2957 148.016 42.7371 148.262 42.241C148.508 41.741 148.854 41.3582 149.299 41.0925C149.744 40.823 150.256 40.6882 150.834 40.6882C151.689 40.6882 152.383 40.9636 152.914 41.5144C153.449 42.0652 153.738 42.7957 153.781 43.7058L153.787 44.0398C153.787 44.6648 153.666 45.2234 153.424 45.7156C153.186 46.2078 152.842 46.5886 152.393 46.8582C151.947 47.1277 151.432 47.2625 150.846 47.2625C149.951 47.2625 149.234 46.9656 148.695 46.3718C148.16 45.7742 147.893 44.9792 147.893 43.9871V43.9167ZM149.316 44.0398C149.316 44.6921 149.451 45.2039 149.721 45.575C149.99 45.9421 150.365 46.1257 150.846 46.1257C151.326 46.1257 151.699 45.9382 151.965 45.5632C152.234 45.1882 152.369 44.6394 152.369 43.9167C152.369 43.2761 152.23 42.7683 151.953 42.3933C151.68 42.0183 151.307 41.8308 150.834 41.8308C150.369 41.8308 150 42.0164 149.727 42.3875C149.453 42.7546 149.316 43.3054 149.316 44.0398ZM159.213 41.9539H156.459V47.1453H155.041V40.8054H159.213V41.9539ZM163.977 40.8054H165.395V47.1453H163.977V42.9148L161.492 47.1453H160.074V40.8054H161.492V45.0359L163.977 40.8054ZM170.867 40.8054H172.285V47.1453H170.867V42.9148L168.383 47.1453H166.965V40.8054H168.383V45.0359L170.867 40.8054Z" fill="#788891"/>
<path d="M32.0668 13.9884C33.1952 13.9884 34.1485 14.7163 34.5073 15.7235H43.4929C43.8517 14.7163 44.805 13.9884 45.9334 13.9884C47.3669 13.9884 48.5334 15.1561 48.5334 16.5911C48.5334 18.026 47.3669 19.1938 45.9334 19.1938C44.805 19.1938 43.8517 18.4659 43.4929 17.4587H34.5064C34.1476 18.4659 33.1943 19.1938 32.0659 19.1938C30.6324 19.1938 29.4659 18.026 29.4659 16.5911C29.4659 15.1561 30.6333 13.9884 32.0668 13.9884ZM45.9334 17.4587C46.411 17.4587 46.8001 17.07 46.8001 16.5911C46.8001 16.1122 46.411 15.7235 45.9334 15.7235C45.4559 15.7235 45.0668 16.1122 45.0668 16.5911C45.0668 17.07 45.4559 17.4587 45.9334 17.4587ZM32.0668 17.4587C32.5443 17.4587 32.9334 17.07 32.9334 16.5911C32.9334 16.1122 32.5443 15.7235 32.0668 15.7235C31.5892 15.7235 31.2001 16.1122 31.2001 16.5911C31.2001 17.07 31.5892 17.4587 32.0668 17.4587Z" fill="#00B2FF"/>
<path d="M25.1333 19.3535V13.9885C25.1333 13.7577 25.2243 13.5373 25.3872 13.3751L28.8539 9.90485C29.0159 9.74175 29.2369 9.65066 29.4666 9.65066H32.2261C32.5849 8.64341 33.5382 7.91553 34.6666 7.91553C36.1001 7.91553 37.2666 9.08327 37.2666 10.5182C37.2666 11.9532 36.1001 13.1209 34.6666 13.1209C33.5382 13.1209 32.5849 12.393 32.2261 11.3858H29.8254L26.8666 14.3477V19.3535C27.8728 19.7127 28.5999 20.667 28.5999 21.7966C28.5999 23.2315 27.4334 24.3993 25.9999 24.3993C24.5665 24.3993 23.3999 23.2315 23.3999 21.7966C23.3999 20.667 24.1271 19.7127 25.1333 19.3535ZM34.6666 11.3858C35.1441 11.3858 35.5333 10.9971 35.5333 10.5182C35.5333 10.0393 35.1441 9.65066 34.6666 9.65066C34.1891 9.65066 33.7999 10.0393 33.7999 10.5182C33.7999 10.9971 34.1891 11.3858 34.6666 11.3858ZM25.9999 22.6641C26.4775 22.6641 26.8666 22.2755 26.8666 21.7966C26.8666 21.3177 26.4775 20.929 25.9999 20.929C25.5224 20.929 25.1333 21.3177 25.1333 21.7966C25.1333 22.2755 25.5224 22.6641 25.9999 22.6641Z" fill="#00B2FF"/>
<path d="M9.53333 22.6641C9.93373 22.6641 10.3081 22.7621 10.647 22.9252L12.1333 21.4374V13.1209C12.1333 12.8901 12.2243 12.6698 12.3873 12.5075L21.0609 3.82494C20.8979 3.48572 20.8 3.11093 20.8 2.71012C20.8 1.27516 21.9665 0.107422 23.4 0.107422C24.8335 0.107422 26 1.27516 26 2.71012C26 4.14507 24.8335 5.31281 23.4 5.31281C22.9996 5.31281 22.6252 5.21477 22.2863 5.05167L13.8667 13.4801V21.7965C13.8667 22.0273 13.7757 22.2477 13.6127 22.4099L11.8725 24.152C12.0354 24.4912 12.1333 24.866 12.1333 25.2668C12.1333 26.7017 10.9668 27.8695 9.53333 27.8695C8.09986 27.8695 6.93333 26.7017 6.93333 25.2668C6.93333 23.8318 8.09986 22.6641 9.53333 22.6641ZM23.4 3.57768C23.8775 3.57768 24.2667 3.18901 24.2667 2.71012C24.2667 2.23122 23.8775 1.84255 23.4 1.84255C22.9225 1.84255 22.5333 2.23122 22.5333 2.71012C22.5333 3.18901 22.9225 3.57768 23.4 3.57768ZM9.53333 26.1344C10.0109 26.1344 10.4 25.7457 10.4 25.2668C10.4 24.7879 10.0109 24.3992 9.53333 24.3992C9.0558 24.3992 8.66667 24.7879 8.66667 25.2668C8.66667 25.7457 9.0558 26.1344 9.53333 26.1344Z" fill="#00B2FF"/>
<path d="M1.73328 12.413V8.78307C1.73328 8.55229 1.82428 8.33193 1.98722 8.1697L8.05388 2.09675C8.21595 1.93365 8.43695 1.84255 8.66662 1.84255H13.1594C13.5182 0.835308 14.4716 0.107422 15.6 0.107422C17.0334 0.107422 18.2 1.27516 18.2 2.71012C18.2 4.14507 17.0334 5.31281 15.6 5.31281C14.4716 5.31281 13.5182 4.58492 13.1594 3.57768H9.02542L3.46662 9.14224V12.413C4.47282 12.7721 5.19995 13.7264 5.19995 14.856C5.19995 16.291 4.03342 17.4587 2.59995 17.4587C1.16648 17.4587 -4.95911e-05 16.291 -4.95911e-05 14.856C-4.95911e-05 13.7264 0.727085 12.7721 1.73328 12.413ZM15.6 3.57768C16.0775 3.57768 16.4666 3.18901 16.4666 2.71012C16.4666 2.23122 16.0775 1.84255 15.6 1.84255C15.1224 1.84255 14.7333 2.23122 14.7333 2.71012C14.7333 3.18901 15.1224 3.57768 15.6 3.57768ZM2.59995 15.7236C3.07748 15.7236 3.46662 15.3349 3.46662 14.856C3.46662 14.3771 3.07748 13.9885 2.59995 13.9885C2.12242 13.9885 1.73328 14.3771 1.73328 14.856C1.73328 15.3349 2.12242 15.7236 2.59995 15.7236Z" fill="#00B2FF"/>
<path d="M13.8658 47.1163V34.6503C12.8604 34.2911 12.1333 33.3368 12.1333 32.2072C12.1333 30.7723 13.2998 29.6046 14.7333 29.6046C15.8617 29.6046 16.815 30.3324 17.1738 31.3397H26.1594C26.5182 30.3324 27.4716 29.6046 28.6 29.6046C29.7284 29.6046 30.6817 30.3324 31.0405 31.3397H36.0412L39.2608 28.1167C39.0979 27.7775 39 27.4027 39 27.0019C39 25.5669 40.1665 24.3992 41.6 24.3992C43.0334 24.3992 44.2 25.5669 44.2 27.0019C44.2 28.4368 43.0334 29.6046 41.6 29.6046C41.1996 29.6046 40.8252 29.5065 40.4863 29.3434L37.0127 32.8206C36.8506 32.9837 36.6296 33.0748 36.4 33.0748H31.0405C30.6817 34.0821 29.7284 34.8099 28.6 34.8099C27.4716 34.8099 26.5182 34.0821 26.1594 33.0748H17.173C16.9112 33.8096 16.3332 34.3883 15.5991 34.6503V47.1163C16.6053 47.4755 17.3324 48.4298 17.3324 49.5594C17.3324 50.9944 16.1659 52.1621 14.7324 52.1621C13.299 52.1621 12.1324 50.9944 12.1324 49.5594C12.1324 48.4298 12.8596 47.4755 13.8658 47.1163ZM41.6 27.8694C42.0775 27.8694 42.4666 27.4808 42.4666 27.0019C42.4666 26.523 42.0775 26.1343 41.6 26.1343C41.1224 26.1343 40.7333 26.523 40.7333 27.0019C40.7333 27.4808 41.1224 27.8694 41.6 27.8694ZM28.6 33.0748C29.0775 33.0748 29.4666 32.6861 29.4666 32.2072C29.4666 31.7284 29.0775 31.3397 28.6 31.3397C28.1224 31.3397 27.7333 31.7284 27.7333 32.2072C27.7333 32.6861 28.1224 33.0748 28.6 33.0748ZM14.7333 50.4261C15.2108 50.4261 15.6 50.0374 15.6 49.5585C15.6 49.0796 15.2108 48.691 14.7333 48.691C14.2558 48.691 13.8666 49.0796 13.8666 49.5585C13.8666 50.0374 14.2558 50.4261 14.7333 50.4261ZM14.7333 33.0748C15.2108 33.0748 15.6 32.6861 15.6 32.2072C15.6 31.7284 15.2108 31.3397 14.7333 31.3397C14.2558 31.3397 13.8666 31.7284 13.8666 32.2072C13.8666 32.6861 14.2558 33.0748 14.7333 33.0748Z" fill="#00B2FF"/>
<path d="M18.2 17.6183V14.856C18.2 14.6252 18.291 14.4049 18.4539 14.2427L28.8609 3.82494C28.6979 3.48572 28.6 3.11093 28.6 2.71012C28.6 1.27516 29.7665 0.107422 31.2 0.107422C32.3284 0.107422 33.2817 0.835308 33.6405 1.84255H37.2667C37.7451 1.84255 38.1333 2.23035 38.1333 2.71012V4.95364L41.353 8.17664C41.6919 8.01354 42.0663 7.9155 42.4667 7.9155C43.9001 7.9155 45.0667 9.08324 45.0667 10.5182C45.0667 11.9531 43.9001 13.1209 42.4667 13.1209C41.0332 13.1209 39.8667 11.9531 39.8667 10.5182C39.8667 10.1174 39.9646 9.74259 40.1275 9.40338L36.6539 5.92618C36.491 5.76394 36.4 5.54358 36.4 5.31281V3.57768H33.6405C33.2817 4.58492 32.3284 5.31281 31.2 5.31281C30.7996 5.31281 30.4252 5.21477 30.0863 5.05167L19.9333 15.2152V17.6183C20.9395 17.9775 21.6667 18.9318 21.6667 20.0614C21.6667 21.4964 20.5001 22.6641 19.0667 22.6641C17.6332 22.6641 16.4667 21.4964 16.4667 20.0614C16.4667 18.9318 17.1938 17.9775 18.2 17.6183ZM42.4667 11.3858C42.9442 11.3858 43.3333 10.9971 43.3333 10.5182C43.3333 10.0393 42.9442 9.65063 42.4667 9.65063C41.9891 9.65063 41.6 10.0393 41.6 10.5182C41.6 10.9971 41.9891 11.3858 42.4667 11.3858ZM31.2 3.57768C31.6775 3.57768 32.0667 3.18901 32.0667 2.71012C32.0667 2.23122 31.6775 1.84255 31.2 1.84255C30.7225 1.84255 30.3333 2.23122 30.3333 2.71012C30.3333 3.18901 30.7225 3.57768 31.2 3.57768ZM19.0667 20.929C19.5442 20.929 19.9333 20.5403 19.9333 20.0614C19.9333 19.5825 19.5442 19.1938 19.0667 19.1938C18.5891 19.1938 18.2 19.5825 18.2 20.0614C18.2 20.5403 18.5891 20.929 19.0667 20.929Z" fill="#00B2FF"/>
<path d="M20.8 24.3992C21.9284 24.3992 22.8817 25.1271 23.2405 26.1344H33.4412L38.3873 21.1832C38.5493 21.0201 38.7703 20.929 39 20.929H48.1745L50.2667 18.8347V11.7449L43.5803 5.05167C43.2415 5.21477 42.8671 5.31281 42.4667 5.31281C41.0332 5.31281 39.8667 4.14507 39.8667 2.71012C39.8667 1.27516 41.0332 0.107422 42.4667 0.107422C43.9001 0.107422 45.0667 1.27516 45.0667 2.71012C45.0667 3.11093 44.9687 3.48572 44.8058 3.82494L51.7461 10.7724C51.909 10.9346 52 11.155 52 11.3858V19.1938C52 19.4246 51.909 19.645 51.7461 19.8072L49.1461 22.4099C48.984 22.573 48.763 22.6641 48.5333 22.6641H39.3588L34.4127 27.6153C34.2507 27.7784 34.0297 27.8695 33.8 27.8695H23.2405C22.8817 28.8767 21.9284 29.6046 20.8 29.6046C19.3665 29.6046 18.2 28.4369 18.2 27.0019C18.2 25.567 19.3665 24.3992 20.8 24.3992ZM42.4667 1.84255C41.9891 1.84255 41.6 2.23122 41.6 2.71012C41.6 3.18901 41.9891 3.57768 42.4667 3.57768C42.9442 3.57768 43.3333 3.18901 43.3333 2.71012C43.3333 2.23122 42.9442 1.84255 42.4667 1.84255ZM20.8 27.8695C21.2775 27.8695 21.6667 27.4808 21.6667 27.0019C21.6667 26.523 21.2775 26.1344 20.8 26.1344C20.3225 26.1344 19.9333 26.523 19.9333 27.0019C19.9333 27.4808 20.3225 27.8695 20.8 27.8695Z" fill="#00B2FF"/>
<path d="M2.59997 20.929C3.00037 20.929 3.37477 21.027 3.71363 21.1901L6.9333 17.9671V12.9613C5.9271 12.6021 5.19997 11.6478 5.19997 10.5182C5.19997 9.08327 6.3665 7.91553 7.79997 7.91553C9.23343 7.91553 10.4 9.08327 10.4 10.5182C10.4 11.6478 9.67283 12.6021 8.66663 12.9613V18.3263C8.66663 18.5571 8.57563 18.7774 8.4127 18.9397L4.9391 22.4169C5.10204 22.7561 5.19997 23.1309 5.19997 23.5317C5.19997 24.6613 4.47283 25.6156 3.46663 25.9748V26.6428L10.146 33.3291C10.309 33.4913 10.4 33.7117 10.4 33.9425V34.9697C11.4062 35.3288 12.1333 36.2832 12.1333 37.4127C12.1333 38.5423 11.4062 39.4966 10.4 39.8558V41.911C11.4062 42.2702 12.1333 43.2245 12.1333 44.3541C12.1333 45.7891 10.9668 46.9568 9.5333 46.9568C8.09983 46.9568 6.9333 45.7891 6.9333 44.3541C6.9333 43.2245 7.66043 42.2702 8.66663 41.911V39.8558C7.66043 39.4966 6.9333 38.5423 6.9333 37.4127C6.9333 36.2832 7.66043 35.3288 8.66663 34.9697V34.3016L1.98723 27.6153C1.8243 27.4531 1.7333 27.2327 1.7333 27.0019V25.9748C0.7271 25.6156 -3.24249e-05 24.6613 -3.24249e-05 23.5317C-3.24249e-05 22.0967 1.1665 20.929 2.59997 20.929ZM7.79997 11.3858C8.2775 11.3858 8.66663 10.9971 8.66663 10.5182C8.66663 10.0393 8.2775 9.65066 7.79997 9.65066C7.32243 9.65066 6.9333 10.0393 6.9333 10.5182C6.9333 10.9971 7.32243 11.3858 7.79997 11.3858ZM9.5333 45.2208C10.0108 45.2208 10.4 44.8321 10.4 44.3532C10.4 43.8743 10.0108 43.4857 9.5333 43.4857C9.05577 43.4857 8.66663 43.8743 8.66663 44.3532C8.66663 44.8321 9.05577 45.2208 9.5333 45.2208ZM9.5333 38.2803C10.0108 38.2803 10.4 37.8916 10.4 37.4127C10.4 36.9338 10.0108 36.5452 9.5333 36.5452C9.05577 36.5452 8.66663 36.9338 8.66663 37.4127C8.66663 37.8916 9.05577 38.2803 9.5333 38.2803ZM2.59997 24.3993C3.0775 24.3993 3.46663 24.0106 3.46663 23.5317C3.46663 23.0528 3.0775 22.6641 2.59997 22.6641C2.12243 22.6641 1.7333 23.0528 1.7333 23.5317C1.7333 24.0106 2.12243 24.3993 2.59997 24.3993Z" fill="#00B2FF"/>
</svg>
