<svg xmlns="http://www.w3.org/2000/svg" xmlns:xlink="http://www.w3.org/1999/xlink"><symbol id="icon-detective" viewBox="0 0 36 31">
<path d="M18 9.75821C17.6119 9.75821 17.2969 10.0752 17.2969 10.4663C17.2969 10.8571 17.6119 11.1743 18 11.1743C18.3881 11.1743 18.7031 10.8571 18.7031 10.4663C18.7031 10.0752 18.3881 9.75821 18 9.75821Z"/>
<path d="M33.8906 14.0066H31.1548C29.7125 9.85946 27.6199 2.58774 23.8291 0.529671C21.9331 -0.498398 20.141 0.219618 19.4669 1.67833C19.1802 2.29844 18.6075 2.62453 18 2.62453C17.3842 2.62453 16.8162 2.29124 16.5331 1.67888C15.8829 0.269957 14.1336 -0.513887 12.3041 0.380314C8.45261 2.26386 6.29874 9.8282 4.84525 14.0066H2.10938C0.944 14.0066 0 14.9569 0 16.1308C0 17.3018 0.946198 18.2549 2.10938 18.2549H33.8906C35.056 18.2549 36 17.3043 36 16.1308C36 14.9594 35.0538 14.0066 33.8906 14.0066ZM7.31525 11.1743H15.1875C15.5759 11.1743 15.8906 10.8571 15.8906 10.4663C15.8906 10.0752 15.5759 9.75823 15.1875 9.75823H7.80688C9.92642 3.86225 11.9064 2.14908 12.9183 1.65427C14.0221 1.11493 14.9307 1.56631 15.2581 2.27603C15.7739 3.39178 16.8409 4.04065 18 4.04065C19.1618 4.04065 20.2275 3.38929 20.7419 2.27603C21.0789 1.54612 21.9922 1.14203 23.1619 1.77624C24.1784 2.32831 26.1524 4.09845 28.1928 9.75823H20.8125C20.4241 9.75823 20.1094 10.0752 20.1094 10.4663C20.1094 10.8574 20.4241 11.1743 20.8125 11.1743H28.685C29.0404 12.2066 29.4096 13.2717 29.665 14.0066H6.33527C6.58987 13.2736 6.95819 12.211 7.31525 11.1743ZM33.8906 16.8388H2.10938C1.72156 16.8388 1.40625 16.521 1.40625 16.1308C1.40625 15.7397 1.72101 15.4227 2.10938 15.4227H33.8906C34.2784 15.4227 34.5938 15.7402 34.5938 16.1308C34.5938 16.5216 34.2787 16.8388 33.8906 16.8388Z"/>
<path d="M16.5938 21.0873H5.34375C4.95538 21.0873 4.64062 21.4042 4.64062 21.7953V24.6275C4.64062 28.1413 7.47949 31.0001 10.9688 31.0001C13.6126 31.0001 15.9527 29.3624 16.8835 26.8953C17.5905 26.5706 18.4095 26.5706 19.1165 26.8953C20.0473 29.3624 22.3874 30.9998 25.0312 30.9998C28.5205 30.9998 31.3594 28.1413 31.3594 24.6273V21.795C31.3594 21.4039 31.0446 21.087 30.6562 21.087H19.4062C19.0179 21.087 18.7031 21.4039 18.7031 21.795V22.5031H17.2969V21.795C17.2969 21.4042 16.9821 21.0873 16.5938 21.0873ZM10.9688 29.584C8.25485 29.584 6.04688 27.3605 6.04688 24.6275V22.5034H15.8906V24.6275C15.8906 27.3677 13.6945 29.584 10.9688 29.584ZM20.1094 22.5034H29.9531V24.6275C29.9531 27.3605 27.7451 29.584 25.0312 29.584C22.2987 29.584 20.1094 27.361 20.1094 24.6275V22.5034ZM18.7031 23.9195V24.6275C18.7031 24.8538 18.716 25.0792 18.7394 25.303C18.2508 25.2131 17.7492 25.2131 17.2606 25.303C17.284 25.0792 17.2969 24.8538 17.2969 24.6275V23.9195H18.7031Z"/>
<path d="M10.9688 26.7516C9.80557 26.7516 8.85938 25.7985 8.85938 24.6274C8.85938 24.2363 8.54462 23.9194 8.15625 23.9194C7.76788 23.9194 7.45312 24.2363 7.45312 24.6274C7.45312 26.5793 9.03021 28.1677 10.9688 28.1677C11.3571 28.1677 11.6719 27.8505 11.6719 27.4597C11.6719 27.0686 11.3571 26.7516 10.9688 26.7516Z"/>
<path d="M25.0312 28.1677C26.9698 28.1677 28.5469 26.5793 28.5469 24.6274C28.5469 24.2363 28.2321 23.9194 27.8438 23.9194C27.4554 23.9194 27.1406 24.2363 27.1406 24.6274C27.1406 25.7985 26.1944 26.7516 25.0312 26.7516C24.6429 26.7516 24.3281 27.0686 24.3281 27.4597C24.3281 27.8505 24.6429 28.1677 25.0312 28.1677Z"/>
</symbol><symbol id="icon-hired" viewBox="0 0 35 35">
<path d="M31.2638 27.8931C31.639 27.3746 31.8609 26.7384 31.8609 26.0511V21.9434C31.8609 21.5658 31.5548 21.2598 31.1773 21.2598H28.1222C26.7099 21.2598 25.5609 22.4087 25.5609 23.8211V26.0511C25.5609 26.738 25.7826 27.3738 26.1573 27.8921C25.69 27.9679 25.2404 28.1176 24.8211 28.3367C23.8713 26.9195 22.3152 25.9421 20.5271 25.7772C20.5201 25.7752 20.513 25.7738 20.506 25.7721C21.1457 25.0577 21.5357 24.1151 21.5357 23.0829V17.5C21.5357 17.1225 21.2296 16.8164 20.8521 16.8164H16.6999C14.9157 16.8164 13.4643 18.2679 13.4643 20.052V23.0828C13.4643 24.1151 13.8543 25.0576 14.494 25.772C14.487 25.7737 14.4799 25.7752 14.4729 25.7772C12.6846 25.942 11.1284 26.9196 10.1787 28.337C9.75926 28.1179 9.30959 27.9681 8.84249 27.8923C9.21724 27.374 9.43906 26.7381 9.43906 26.0511V21.9434C9.43906 21.5658 9.13295 21.2598 8.75547 21.2598H5.70035C4.28805 21.2598 3.13906 22.4087 3.13906 23.8211V26.0511C3.13906 26.7385 3.36103 27.3746 3.73618 27.8931C1.62025 28.2389 0 30.0791 0 32.2913V34.3164C0 34.694 0.306113 35 0.683594 35H34.3164C34.6939 35 35 34.694 35 34.3164V32.2913C35 30.0791 33.3797 28.2389 31.2638 27.8931ZM4.50625 23.8211C4.50625 23.1626 5.04191 22.627 5.70035 22.627H8.07188V23.4595C8.07188 23.8677 7.73979 24.1998 7.33161 24.1998H4.50625V23.8211ZM4.50625 25.567H7.33161C7.59206 25.567 7.84144 25.5192 8.07188 25.4324V26.0511C8.07188 27.0341 7.27214 27.8339 6.28906 27.8339C5.30599 27.8339 4.50625 27.0341 4.50625 26.0511V25.567ZM6.72978 29.2011L6.28906 29.6418L5.84835 29.2011H6.72978ZM9.19789 31.564V33.6328H1.36719V32.2913C1.36719 30.758 2.48985 29.4826 3.95616 29.2424L5.80569 31.0919C5.93394 31.2201 6.10777 31.2921 6.28906 31.2921C6.47035 31.2921 6.64419 31.2201 6.77243 31.0919L8.62251 29.2417C8.94927 29.2949 9.26352 29.4003 9.55637 29.5544C9.32477 30.1809 9.19789 30.8579 9.19789 31.564ZM17.5001 25.7515C16.0286 25.7515 14.8315 24.5543 14.8315 23.0829V22.1794H18.917C19.37 22.1794 19.7965 22.0637 20.1686 21.8604V23.0829C20.1686 24.5543 18.9715 25.7515 17.5001 25.7515ZM18.6916 27.1186L17.5 28.3102L16.3084 27.1186H18.6916ZM14.8314 20.052H14.8315C14.8315 19.0217 15.6696 18.1836 16.6999 18.1836H20.1685V19.5606C20.1685 20.2508 19.607 20.8123 18.9169 20.8123H14.8314V20.052ZM24.4349 33.6328H23.1055H11.8945H10.5651V32.2656H15.0163C15.3938 32.2656 15.6999 31.9596 15.6999 31.582C15.6999 31.2045 15.3938 30.8984 15.0163 30.8984H10.6151C10.9081 28.9556 12.4633 27.422 14.4158 27.1595L17.0166 29.7603C17.1501 29.8938 17.3251 29.9605 17.5 29.9605C17.6749 29.9605 17.8499 29.8938 17.9834 29.7603L20.5842 27.1595C22.755 27.4513 24.4349 29.3146 24.4349 31.564V33.6328ZM26.9281 23.8211C26.9281 23.1626 27.4638 22.627 28.1222 22.627H30.4937V23.4595C30.4937 23.8677 30.1617 24.1998 29.7535 24.1998H26.9281V23.8211ZM26.9281 25.567H29.7535C30.0139 25.567 30.2633 25.5192 30.4937 25.4324V26.0511C30.4937 27.0341 29.694 27.8339 28.7109 27.8339C27.7279 27.8339 26.9281 27.0341 26.9281 26.0511V25.567ZM29.1516 29.2011L28.7109 29.6418L28.2702 29.2011H29.1516ZM25.802 33.6328V31.564C25.802 30.8578 25.6752 30.1809 25.4435 29.5542C25.7362 29.4 26.0504 29.2947 26.3772 29.2416L28.2275 31.0919C28.3557 31.2201 28.5296 31.2921 28.7109 31.2921C28.8922 31.2921 29.066 31.2201 29.1942 31.0919L31.0438 29.2424C32.5101 29.4826 33.6327 30.758 33.6327 32.2913V33.6328H25.802Z"/>
<path d="M20.8689 4.4665C20.6019 4.19956 20.1692 4.19956 19.9021 4.4665L16.5477 7.82097L15.0976 6.37086C14.8306 6.10385 14.3979 6.10385 14.1309 6.37079C13.8639 6.63773 13.8639 7.07059 14.1309 7.3376L16.0643 9.27107C16.1926 9.39925 16.3664 9.4713 16.5477 9.4713C16.729 9.4713 16.9028 9.39925 17.0311 9.27107L20.8689 5.43324C21.1359 5.1663 21.1359 4.73345 20.8689 4.4665Z"/>
<path d="M20.295 0.592814C19.9503 0.439074 19.5461 0.593908 19.3923 0.938712C19.2385 1.28352 19.3934 1.68773 19.7382 1.84147C21.7205 2.72556 23.0015 4.69889 23.0015 6.86875C23.0015 9.90227 20.5335 12.3702 17.5 12.3702C14.4664 12.3702 11.9985 9.90227 11.9985 6.86875C11.9985 4.7101 13.2702 2.74087 15.2382 1.85199C15.5823 1.69661 15.7353 1.29165 15.5798 0.947599C15.4244 0.603478 15.0193 0.450558 14.6755 0.605939C12.2188 1.71555 10.6313 4.17382 10.6313 6.86868C10.6313 10.6561 13.7126 13.7374 17.5 13.7374C21.2873 13.7374 24.3686 10.6561 24.3686 6.86875C24.3686 4.15987 22.7696 1.69641 20.295 0.592814Z"/>
<path d="M17.5245 0H17.5C17.1225 0 16.8164 0.306045 16.8164 0.683594C16.8164 1.06114 17.1225 1.36719 17.5 1.36719H17.518C17.5191 1.36719 17.5202 1.36719 17.5213 1.36719C17.8974 1.36719 18.2031 1.06326 18.2049 0.686807C18.2066 0.309258 17.902 0.00177734 17.5245 0Z"/>
<path d="M17.9832 31.0987C17.8562 30.9716 17.6798 30.8984 17.5 30.8984C17.3202 30.8984 17.1438 30.9716 17.0167 31.0987C16.8896 31.2259 16.8164 31.4022 16.8164 31.582C16.8164 31.7618 16.8895 31.9382 17.0167 32.0653C17.1439 32.1925 17.3202 32.2656 17.5 32.2656C17.6798 32.2656 17.8562 32.1925 17.9832 32.0653C18.1104 31.9382 18.1836 31.7618 18.1836 31.582C18.1836 31.4022 18.1104 31.2259 17.9832 31.0987Z"/>
</symbol><symbol id="icon-logo-mobile" viewBox="0 0 52 52">
<path d="M32.0665 13.8665C33.1949 13.8665 34.1483 14.5936 34.5071 15.5998H43.4927C43.8515 14.5936 44.8048 13.8665 45.9332 13.8665C47.3667 13.8665 48.5332 15.033 48.5332 16.4664C48.5332 17.8999 47.3667 19.0664 45.9332 19.0664C44.8048 19.0664 43.8515 18.3392 43.4927 17.3331H34.5062C34.1474 18.3392 33.1941 19.0664 32.0657 19.0664C30.6322 19.0664 29.4657 17.8999 29.4657 16.4664C29.4657 15.033 30.6331 13.8665 32.0665 13.8665ZM45.9332 17.3331C46.4107 17.3331 46.7999 16.9448 46.7999 16.4664C46.7999 15.988 46.4107 15.5998 45.9332 15.5998C45.4557 15.5998 45.0665 15.988 45.0665 16.4664C45.0665 16.9448 45.4557 17.3331 45.9332 17.3331ZM32.0665 17.3331C32.5441 17.3331 32.9332 16.9448 32.9332 16.4664C32.9332 15.988 32.5441 15.5998 32.0665 15.5998C31.589 15.5998 31.1999 15.988 31.1999 16.4664C31.1999 16.9448 31.589 17.3331 32.0665 17.3331Z" fill="#00B2FF"/>
<path d="M25.1333 19.2257V13.8664C25.1333 13.6358 25.2243 13.4157 25.3872 13.2536L28.8539 9.78704C29.0159 9.62411 29.2369 9.53311 29.4666 9.53311H32.2261C32.5849 8.52693 33.5382 7.7998 34.6666 7.7998C36.1001 7.7998 37.2666 8.96632 37.2666 10.3998C37.2666 11.8332 36.1001 12.9997 34.6666 12.9997C33.5382 12.9997 32.5849 12.2726 32.2261 11.2664H29.8254L26.8666 14.2252V19.2257C27.8728 19.5845 28.5999 20.5379 28.5999 21.6662C28.5999 23.0997 27.4334 24.2662 25.9999 24.2662C24.5665 24.2662 23.3999 23.0997 23.3999 21.6662C23.3999 20.5379 24.1271 19.5845 25.1333 19.2257ZM34.6666 11.2664C35.1441 11.2664 35.5333 10.8782 35.5333 10.3998C35.5333 9.92137 35.1441 9.53311 34.6666 9.53311C34.1891 9.53311 33.7999 9.92137 33.7999 10.3998C33.7999 10.8782 34.1891 11.2664 34.6666 11.2664ZM25.9999 22.5329C26.4775 22.5329 26.8666 22.1446 26.8666 21.6662C26.8666 21.1878 26.4775 20.7996 25.9999 20.7996C25.5224 20.7996 25.1333 21.1878 25.1333 21.6662C25.1333 22.1446 25.5224 22.5329 25.9999 22.5329Z" fill="#00B2FF"/>
<path d="M9.53333 22.533C9.93373 22.533 10.3081 22.6309 10.647 22.7938L12.1333 21.3075V12.9998C12.1333 12.7693 12.2243 12.5491 12.3873 12.3871L21.0609 3.7136C20.8979 3.37474 20.8 3.00035 20.8 2.59996C20.8 1.16651 21.9665 0 23.4 0C24.8335 0 26 1.16651 26 2.59996C26 4.0334 24.8335 5.19991 23.4 5.19991C22.9996 5.19991 22.6252 5.10198 22.2863 4.93905L13.8667 13.3586V21.6663C13.8667 21.8968 13.7757 22.117 13.6127 22.279L11.8725 24.0193C12.0354 24.3581 12.1333 24.7325 12.1333 25.1329C12.1333 26.5664 10.9668 27.7329 9.53333 27.7329C8.09986 27.7329 6.93333 26.5664 6.93333 25.1329C6.93333 23.6995 8.09986 22.533 9.53333 22.533ZM23.4 3.46661C23.8775 3.46661 24.2667 3.07835 24.2667 2.59996C24.2667 2.12156 23.8775 1.7333 23.4 1.7333C22.9225 1.7333 22.5333 2.12156 22.5333 2.59996C22.5333 3.07835 22.9225 3.46661 23.4 3.46661ZM9.53333 25.9996C10.0109 25.9996 10.4 25.6113 10.4 25.1329C10.4 24.6545 10.0109 24.2663 9.53333 24.2663C9.0558 24.2663 8.66667 24.6545 8.66667 25.1329C8.66667 25.6113 9.0558 25.9996 9.53333 25.9996Z" fill="#00B2FF"/>
<path d="M1.73353 12.2926V8.66652C1.73353 8.43599 1.82453 8.21586 1.98746 8.0538L8.05413 1.98723C8.21619 1.8243 8.43719 1.7333 8.66686 1.7333H13.1597C13.5185 0.727121 14.4718 0 15.6002 0C17.0337 0 18.2002 1.16651 18.2002 2.59996C18.2002 4.0334 17.0337 5.19991 15.6002 5.19991C14.4718 5.19991 13.5185 4.47279 13.1597 3.46661H9.02566L3.46686 9.02532V12.2926C4.47306 12.6514 5.2002 13.6047 5.2002 14.7331C5.2002 16.1665 4.03366 17.333 2.60019 17.333C1.16673 17.333 0.00019455 16.1665 0.00019455 14.7331C0.00019455 13.6047 0.727329 12.6514 1.73353 12.2926ZM15.6002 3.46661C16.0777 3.46661 16.4669 3.07835 16.4669 2.59996C16.4669 2.12156 16.0777 1.7333 15.6002 1.7333C15.1227 1.7333 14.7335 2.12156 14.7335 2.59996C14.7335 3.07835 15.1227 3.46661 15.6002 3.46661ZM2.60019 15.5997C3.07773 15.5997 3.46686 15.2115 3.46686 14.7331C3.46686 14.2547 3.07773 13.8664 2.60019 13.8664C2.12266 13.8664 1.73353 14.2547 1.73353 14.7331C1.73353 15.2115 2.12266 15.5997 2.60019 15.5997Z" fill="#00B2FF"/>
<path d="M13.866 46.9596V34.5067C12.8607 34.1479 12.1335 33.1946 12.1335 32.0662C12.1335 30.6328 13.3001 29.4663 14.7335 29.4663C15.8619 29.4663 16.8153 30.1934 17.1741 31.1996H26.1597C26.5185 30.1934 27.4718 29.4663 28.6002 29.4663C29.7286 29.4663 30.6819 30.1934 31.0407 31.1996H36.0414L39.2611 27.98C39.0981 27.6411 39.0002 27.2667 39.0002 26.8663C39.0002 25.4329 40.1667 24.2664 41.6002 24.2664C43.0337 24.2664 44.2002 25.4329 44.2002 26.8663C44.2002 28.2998 43.0337 29.4663 41.6002 29.4663C41.1998 29.4663 40.8254 29.3683 40.4865 29.2054L37.0129 32.679C36.8509 32.8419 36.6299 32.9329 36.4002 32.9329H31.0407C30.6819 33.9391 29.7286 34.6662 28.6002 34.6662C27.4718 34.6662 26.5185 33.9391 26.1597 32.9329H17.1732C16.9115 33.6669 16.3334 34.245 15.5993 34.5067V46.9596C16.6055 47.3184 17.3327 48.2718 17.3327 49.4001C17.3327 50.8336 16.1661 52.0001 14.7327 52.0001C13.2992 52.0001 12.1327 50.8336 12.1327 49.4001C12.1327 48.2718 12.8598 47.3184 13.866 46.9596ZM41.6002 27.733C42.0777 27.733 42.4669 27.3447 42.4669 26.8663C42.4669 26.3879 42.0777 25.9997 41.6002 25.9997C41.1227 25.9997 40.7335 26.3879 40.7335 26.8663C40.7335 27.3447 41.1227 27.733 41.6002 27.733ZM28.6002 32.9329C29.0777 32.9329 29.4669 32.5446 29.4669 32.0662C29.4669 31.5878 29.0777 31.1996 28.6002 31.1996C28.1227 31.1996 27.7335 31.5878 27.7335 32.0662C27.7335 32.5446 28.1227 32.9329 28.6002 32.9329ZM14.7335 50.2659C15.2111 50.2659 15.6002 49.8777 15.6002 49.3993C15.6002 48.9209 15.2111 48.5326 14.7335 48.5326C14.256 48.5326 13.8669 48.9209 13.8669 49.3993C13.8669 49.8777 14.256 50.2659 14.7335 50.2659ZM14.7335 32.9329C15.2111 32.9329 15.6002 32.5446 15.6002 32.0662C15.6002 31.5878 15.2111 31.1996 14.7335 31.1996C14.256 31.1996 13.8669 31.5878 13.8669 32.0662C13.8669 32.5446 14.256 32.9329 14.7335 32.9329Z" fill="#00B2FF"/>
<path d="M18.2002 17.4925V14.7331C18.2002 14.5026 18.2912 14.2824 18.4542 14.1204L28.8611 3.7136C28.6982 3.37474 28.6002 3.00035 28.6002 2.59996C28.6002 1.16651 29.7668 0 31.2002 0C32.3286 0 33.282 0.727121 33.6408 1.7333H37.2669C37.7453 1.7333 38.1336 2.1207 38.1336 2.59996V4.84112L41.3532 8.06073C41.6921 7.8978 42.0665 7.79987 42.4669 7.79987C43.9004 7.79987 45.0669 8.96638 45.0669 10.3998C45.0669 11.8333 43.9004 12.9998 42.4669 12.9998C41.0334 12.9998 39.8669 11.8333 39.8669 10.3998C39.8669 9.99943 39.9648 9.62504 40.1278 9.28618L36.6542 5.81264C36.4912 5.65057 36.4002 5.43044 36.4002 5.19991V3.46661H33.6408C33.282 4.47279 32.3286 5.19991 31.2002 5.19991C30.7998 5.19991 30.4254 5.10198 30.0866 4.93905L19.9336 15.0919V17.4925C20.9398 17.8513 21.6669 18.8046 21.6669 19.933C21.6669 21.3664 20.5004 22.533 19.0669 22.533C17.6334 22.533 16.4669 21.3664 16.4669 19.933C16.4669 18.8046 17.194 17.8513 18.2002 17.4925ZM42.4669 11.2665C42.9444 11.2665 43.3336 10.8782 43.3336 10.3998C43.3336 9.92143 42.9444 9.53317 42.4669 9.53317C41.9894 9.53317 41.6002 9.92143 41.6002 10.3998C41.6002 10.8782 41.9894 11.2665 42.4669 11.2665ZM31.2002 3.46661C31.6778 3.46661 32.0669 3.07835 32.0669 2.59996C32.0669 2.12156 31.6778 1.7333 31.2002 1.7333C30.7227 1.7333 30.3336 2.12156 30.3336 2.59996C30.3336 3.07835 30.7227 3.46661 31.2002 3.46661ZM19.0669 20.7997C19.5444 20.7997 19.9336 20.4114 19.9336 19.933C19.9336 19.4546 19.5444 19.0663 19.0669 19.0663C18.5894 19.0663 18.2002 19.4546 18.2002 19.933C18.2002 20.4114 18.5894 20.7997 19.0669 20.7997Z" fill="#00B2FF"/>
<path d="M20.8 24.2663C21.9284 24.2663 22.8817 24.9934 23.2405 25.9996H33.4412L38.3873 21.0536C38.5493 20.8906 38.7703 20.7997 39 20.7997H48.1745L50.2667 18.7076V11.6253L43.5803 4.93905C43.2415 5.10198 42.8671 5.19991 42.4667 5.19991C41.0332 5.19991 39.8667 4.0334 39.8667 2.59996C39.8667 1.16651 41.0332 0 42.4667 0C43.9001 0 45.0667 1.16651 45.0667 2.59996C45.0667 3.00035 44.9687 3.37474 44.8058 3.7136L51.7461 10.6538C51.909 10.8158 52 11.0359 52 11.2665V19.0663C52 19.2969 51.909 19.517 51.7461 19.6791L49.1461 22.279C48.984 22.442 48.763 22.533 48.5333 22.533H39.3588L34.4127 27.4789C34.2507 27.6419 34.0297 27.7329 33.8 27.7329H23.2405C22.8817 28.7391 21.9284 29.4662 20.8 29.4662C19.3665 29.4662 18.2 28.2997 18.2 26.8662C18.2 25.4328 19.3665 24.2663 20.8 24.2663ZM42.4667 1.7333C41.9891 1.7333 41.6 2.12156 41.6 2.59996C41.6 3.07835 41.9891 3.46661 42.4667 3.46661C42.9442 3.46661 43.3333 3.07835 43.3333 2.59996C43.3333 2.12156 42.9442 1.7333 42.4667 1.7333ZM20.8 27.7329C21.2775 27.7329 21.6667 27.3446 21.6667 26.8662C21.6667 26.3878 21.2775 25.9996 20.8 25.9996C20.3225 25.9996 19.9333 26.3878 19.9333 26.8662C19.9333 27.3446 20.3225 27.7329 20.8 27.7329Z" fill="#00B2FF"/>
<path d="M2.59997 20.7996C3.00037 20.7996 3.37477 20.8975 3.71363 21.0605L6.9333 17.8408V12.8403C5.9271 12.4815 5.19997 11.5281 5.19997 10.3998C5.19997 8.96632 6.3665 7.7998 7.79997 7.7998C9.23343 7.7998 10.4 8.96632 10.4 10.3998C10.4 11.5281 9.67283 12.4815 8.66663 12.8403V18.1996C8.66663 18.4302 8.57563 18.6503 8.4127 18.8124L4.9391 22.2859C5.10204 22.6248 5.19997 22.9992 5.19997 23.3995C5.19997 24.5279 4.47283 25.4812 3.46663 25.84V26.5074L10.146 33.1866C10.309 33.3487 10.4 33.5688 10.4 33.7994V34.8255C11.4062 35.1843 12.1333 36.1376 12.1333 37.266C12.1333 38.3944 11.4062 39.3477 10.4 39.7065V41.7596C11.4062 42.1184 12.1333 43.0717 12.1333 44.2001C12.1333 45.6335 10.9668 46.8 9.5333 46.8C8.09983 46.8 6.9333 45.6335 6.9333 44.2001C6.9333 43.0717 7.66043 42.1184 8.66663 41.7596V39.7065C7.66043 39.3477 6.9333 38.3944 6.9333 37.266C6.9333 36.1376 7.66043 35.1843 8.66663 34.8255V34.1582L1.98723 27.4789C1.8243 27.3168 1.7333 27.0967 1.7333 26.8662V25.84C0.7271 25.4812 -3.24249e-05 24.5279 -3.24249e-05 23.3995C-3.24249e-05 21.9661 1.1665 20.7996 2.59997 20.7996ZM7.79997 11.2664C8.2775 11.2664 8.66663 10.8782 8.66663 10.3998C8.66663 9.92137 8.2775 9.53311 7.79997 9.53311C7.32243 9.53311 6.9333 9.92137 6.9333 10.3998C6.9333 10.8782 7.32243 11.2664 7.79997 11.2664ZM9.5333 45.0659C10.0108 45.0659 10.4 44.6776 10.4 44.1992C10.4 43.7208 10.0108 43.3325 9.5333 43.3325C9.05577 43.3325 8.66663 43.7208 8.66663 44.1992C8.66663 44.6776 9.05577 45.0659 9.5333 45.0659ZM9.5333 38.1326C10.0108 38.1326 10.4 37.7444 10.4 37.266C10.4 36.7876 10.0108 36.3993 9.5333 36.3993C9.05577 36.3993 8.66663 36.7876 8.66663 37.266C8.66663 37.7444 9.05577 38.1326 9.5333 38.1326ZM2.59997 24.2662C3.0775 24.2662 3.46663 23.8779 3.46663 23.3995C3.46663 22.9212 3.0775 22.5329 2.59997 22.5329C2.12243 22.5329 1.7333 22.9212 1.7333 23.3995C1.7333 23.8779 2.12243 24.2662 2.59997 24.2662Z" fill="#00B2FF"/>
</symbol><symbol id="icon-logo" viewBox="0 0 202 53">
<path class="header" d="M76.9355 24.4506C76.9355 23.7263 76.7484 23.181 76.374 22.8148C76.0078 22.4405 75.3364 22.0539 74.3599 21.6552C72.5776 20.9797 71.2959 20.1903 70.5146 19.287C69.7334 18.3755 69.3428 17.3013 69.3428 16.0643C69.3428 14.5669 69.8717 13.3666 70.9297 12.4633C71.9958 11.5518 73.3467 11.0961 74.9824 11.0961C76.0729 11.0961 77.0454 11.328 77.8999 11.7919C78.7544 12.2476 79.4095 12.8946 79.8652 13.7328C80.3291 14.571 80.561 15.5232 80.561 16.5892H76.9844C76.9844 15.7592 76.8053 15.1285 76.4473 14.6971C76.0973 14.2577 75.5887 14.038 74.9214 14.038C74.2948 14.038 73.8065 14.2251 73.4565 14.5995C73.1066 14.9657 72.9316 15.4621 72.9316 16.0887C72.9316 16.577 73.127 17.0205 73.5176 17.4193C73.9082 17.8099 74.5999 18.2168 75.5928 18.64C77.3262 19.2666 78.5835 20.0357 79.3647 20.9471C80.1541 21.8586 80.5488 23.0183 80.5488 24.4261C80.5488 25.9724 80.0565 27.1809 79.0718 28.0516C78.0871 28.9224 76.7484 29.3578 75.0557 29.3578C73.9082 29.3578 72.8625 29.1218 71.9185 28.6498C70.9744 28.1778 70.2339 27.5023 69.6968 26.6234C69.1678 25.7445 68.9033 24.7069 68.9033 23.5106H72.5044C72.5044 24.536 72.7038 25.2806 73.1025 25.7445C73.5013 26.2084 74.1523 26.4403 75.0557 26.4403C76.3089 26.4403 76.9355 25.7771 76.9355 24.4506ZM86.0054 15.9056L86.103 17.1263C86.8761 16.1498 87.8975 15.6615 89.167 15.6615C90.4854 15.6615 91.4172 16.2556 91.9624 17.4437C92.7192 16.2556 93.7975 15.6615 95.1973 15.6615C97.5085 15.6615 98.6925 17.2606 98.7495 20.4589V29.1136H95.2949V20.6786C95.2949 19.9136 95.1891 19.3684 94.9775 19.0428C94.766 18.7173 94.4079 18.5546 93.9033 18.5546C93.2604 18.5546 92.7803 18.9493 92.4629 19.7386L92.4873 20.1537V29.1136H89.0327V20.703C89.0327 19.9462 88.931 19.4009 88.7275 19.0673C88.5241 18.7255 88.1619 18.5546 87.6411 18.5546C87.047 18.5546 86.575 18.876 86.2251 19.5189V29.1136H82.7705V15.9056H86.0054ZM107.587 29.1136C107.49 28.9102 107.392 28.5684 107.294 28.0883C106.676 28.9346 105.838 29.3578 104.78 29.3578C103.673 29.3578 102.753 28.9916 102.021 28.2592C101.297 27.5267 100.935 26.5787 100.935 25.4149C100.935 24.0315 101.374 22.9613 102.253 22.2045C103.14 21.4476 104.414 21.0611 106.074 21.0448H107.124V19.9828C107.124 19.3887 107.022 18.9696 106.818 18.7255C106.615 18.4813 106.318 18.3593 105.927 18.3593C105.065 18.3593 104.633 18.8638 104.633 19.8729H101.179C101.179 18.6522 101.634 17.6472 102.546 16.8578C103.465 16.0603 104.625 15.6615 106.025 15.6615C107.473 15.6615 108.592 16.0399 109.382 16.7968C110.179 17.5455 110.578 18.6197 110.578 20.0194V26.2328C110.594 27.3721 110.757 28.2632 111.066 28.9061V29.1136H107.587ZM105.549 26.6478C105.931 26.6478 106.257 26.5705 106.525 26.4159C106.794 26.2613 106.993 26.0782 107.124 25.8666V23.12H106.293C105.708 23.12 105.244 23.3072 104.902 23.6815C104.568 24.0559 104.401 24.5564 104.401 25.183C104.401 26.1595 104.784 26.6478 105.549 26.6478ZM119.599 19.2382L118.452 19.1405C117.508 19.1405 116.869 19.5555 116.535 20.3856V29.1136H113.068V15.9056H116.328L116.425 17.3339C116.971 16.219 117.723 15.6615 118.684 15.6615C119.074 15.6615 119.392 15.7144 119.636 15.8202L119.599 19.2382ZM126.008 12.6586V15.9056H127.778V18.5057H126.008V25.0609C126.008 25.5817 126.077 25.9398 126.215 26.1351C126.362 26.3304 126.639 26.4281 127.045 26.4281C127.379 26.4281 127.652 26.3996 127.863 26.3427L127.839 29.0282C127.253 29.2479 126.618 29.3578 125.935 29.3578C123.705 29.3578 122.578 28.0801 122.553 25.5248V18.5057H121.027V15.9056H122.553V12.6586H126.008ZM135.615 29.1136V11.3402H140.314C142.39 11.3402 144.042 11.9994 145.271 13.3177C146.507 14.6361 147.138 16.4427 147.163 18.7377V21.6185C147.163 23.9541 146.544 25.7893 145.307 27.1239C144.078 28.4504 142.382 29.1136 140.217 29.1136H135.615ZM139.204 14.3309V26.1351H140.278C141.474 26.1351 142.316 25.8218 142.805 25.1952C143.293 24.5604 143.549 23.4699 143.574 21.9237V18.8353C143.574 17.1752 143.342 16.0196 142.878 15.3685C142.414 14.7094 141.625 14.3635 140.51 14.3309H139.204ZM154.914 29.3578C153.14 29.3578 151.757 28.8288 150.764 27.7709C149.771 26.7129 149.274 25.1993 149.274 23.2299V22.1801C149.274 20.0967 149.73 18.4895 150.642 17.3583C151.553 16.2271 152.859 15.6615 154.56 15.6615C156.22 15.6615 157.469 16.1945 158.308 17.2606C159.146 18.3186 159.573 19.8892 159.589 21.9725V23.6693H152.717C152.766 24.6459 152.981 25.362 153.364 25.8177C153.746 26.2653 154.336 26.4891 155.134 26.4891C156.289 26.4891 157.254 26.0944 158.027 25.3051L159.382 27.3925C158.959 27.9784 158.344 28.4545 157.539 28.8207C156.733 29.1788 155.858 29.3578 154.914 29.3578ZM152.741 21.2523H156.196V20.9349C156.18 20.1455 156.049 19.5474 155.805 19.1405C155.561 18.7336 155.138 18.5302 154.536 18.5302C153.933 18.5302 153.494 18.7458 153.217 19.1771C152.949 19.6084 152.79 20.3002 152.741 21.2523ZM165.705 24.2308L167.377 15.9056H170.979L167.353 29.1136H164.057L160.419 15.9056H164.033L165.705 24.2308ZM176.228 29.1136H172.761V15.9056H176.228V29.1136ZM172.602 12.4877C172.602 11.9506 172.773 11.5111 173.115 11.1693C173.457 10.8275 173.912 10.6566 174.482 10.6566C175.052 10.6566 175.507 10.8275 175.849 11.1693C176.191 11.5111 176.362 11.9506 176.362 12.4877C176.362 13.0166 176.191 13.4561 175.849 13.806C175.515 14.156 175.06 14.3309 174.482 14.3309C173.904 14.3309 173.444 14.156 173.103 13.806C172.769 13.4561 172.602 13.0166 172.602 12.4877ZM183.674 26.4891C184.675 26.4891 185.183 25.8381 185.2 24.536H188.447C188.431 25.9764 187.987 27.1402 187.116 28.0272C186.245 28.9143 185.122 29.3578 183.747 29.3578C182.046 29.3578 180.748 28.8288 179.853 27.7709C178.958 26.7129 178.502 25.1545 178.486 23.0956V22.0458C178.486 19.9706 178.925 18.3877 179.804 17.2972C180.691 16.2067 181.997 15.6615 183.723 15.6615C185.179 15.6615 186.327 16.1132 187.165 17.0165C188.003 17.9117 188.431 19.1853 188.447 20.8373H185.2C185.192 20.0967 185.069 19.5271 184.833 19.1283C184.597 18.7295 184.207 18.5302 183.662 18.5302C183.059 18.5302 182.628 18.7458 182.368 19.1771C182.107 19.6003 181.969 20.4263 181.953 21.6552V22.9979C181.953 24.0721 182.006 24.8249 182.111 25.2562C182.217 25.6794 182.392 25.9927 182.636 26.1962C182.88 26.3915 183.226 26.4891 183.674 26.4891ZM195.734 29.3578C193.96 29.3578 192.577 28.8288 191.584 27.7709C190.591 26.7129 190.095 25.1993 190.095 23.2299V22.1801C190.095 20.0967 190.55 18.4895 191.462 17.3583C192.373 16.2271 193.68 15.6615 195.38 15.6615C197.041 15.6615 198.29 16.1945 199.128 17.2606C199.966 18.3186 200.393 19.8892 200.41 21.9725V23.6693H193.537C193.586 24.6459 193.802 25.362 194.184 25.8177C194.567 26.2653 195.157 26.4891 195.954 26.4891C197.11 26.4891 198.074 26.0944 198.847 25.3051L200.202 27.3925C199.779 27.9784 199.165 28.4545 198.359 28.8207C197.553 29.1788 196.678 29.3578 195.734 29.3578ZM193.562 21.2523H197.016V20.9349C197 20.1455 196.87 19.5474 196.625 19.1405C196.381 18.7336 195.958 18.5302 195.356 18.5302C194.754 18.5302 194.314 18.7458 194.038 19.1771C193.769 19.6084 193.61 20.3002 193.562 21.2523Z" fill="currentColor"/>
<path class="under-header" d="M70.9473 45.1062L72.2363 40.8054H73.7539L71.2344 48.1062C70.8477 49.1726 70.1914 49.7058 69.2656 49.7058C69.0586 49.7058 68.8301 49.6707 68.5801 49.6003V48.4988L68.8496 48.5164C69.209 48.5164 69.4785 48.45 69.6582 48.3171C69.8418 48.1882 69.9863 47.9695 70.0918 47.6609L70.2969 47.116L68.0703 40.8054H69.6055L70.9473 45.1062ZM78.3418 45.3933L80.2168 40.8054H81.998V47.1453H80.5742V42.95L78.8281 47.1453H77.8613L76.1094 42.9265V47.1453H74.6855V40.8054H76.4785L78.3418 45.3933ZM88.9707 47.1453H87.5469V44.5847H85.0801V47.1453H83.6562V40.8054H85.0801V43.448H87.5469V40.8054H88.9707V47.1453ZM92.0234 42.821H93.418C93.9375 42.821 94.3906 42.9109 94.7773 43.0906C95.1641 43.2703 95.457 43.5222 95.6562 43.8464C95.8594 44.1707 95.9609 44.5476 95.9609 44.9773C95.9609 45.6296 95.7305 46.1531 95.2695 46.5476C94.8086 46.9421 94.1953 47.1414 93.4297 47.1453H90.5996V40.8054H92.0234V42.821ZM98.4395 47.1453H97.0156V40.8054H98.4395V47.1453ZM92.0234 43.9636V46.0085H93.4121C93.7598 46.0085 94.0332 45.9226 94.2324 45.7507C94.4355 45.575 94.5371 45.3269 94.5371 45.0066C94.5371 44.6863 94.4375 44.4343 94.2383 44.2507C94.043 44.0632 93.7773 43.9675 93.4414 43.9636H92.0234ZM102.939 47.2625C102.037 47.2625 101.305 46.9792 100.742 46.4128C100.184 45.8425 99.9043 45.0847 99.9043 44.1394V43.9636C99.9043 43.3308 100.025 42.7664 100.268 42.2703C100.514 41.7703 100.857 41.3816 101.299 41.1042C101.74 40.8269 102.232 40.6882 102.775 40.6882C103.639 40.6882 104.305 40.9636 104.773 41.5144C105.246 42.0652 105.482 42.8445 105.482 43.8523V44.4265H101.34C101.383 44.95 101.557 45.364 101.861 45.6687C102.17 45.9734 102.557 46.1257 103.021 46.1257C103.674 46.1257 104.205 45.8621 104.615 45.3347L105.383 46.0671C105.129 46.446 104.789 46.741 104.363 46.9519C103.941 47.1589 103.467 47.2625 102.939 47.2625ZM102.77 41.8308C102.379 41.8308 102.062 41.9675 101.82 42.241C101.582 42.5144 101.43 42.8953 101.363 43.3835H104.076V43.2781C104.045 42.8015 103.918 42.4421 103.695 42.2C103.473 41.9539 103.164 41.8308 102.77 41.8308ZM114.57 41.9363H112.514V47.1453H111.09V41.9363H109.057V40.8054H114.57V41.9363ZM117.939 47.2625C117.037 47.2625 116.305 46.9792 115.742 46.4128C115.184 45.8425 114.904 45.0847 114.904 44.1394V43.9636C114.904 43.3308 115.025 42.7664 115.268 42.2703C115.514 41.7703 115.857 41.3816 116.299 41.1042C116.74 40.8269 117.232 40.6882 117.775 40.6882C118.639 40.6882 119.305 40.9636 119.773 41.5144C120.246 42.0652 120.482 42.8445 120.482 43.8523V44.4265H116.34C116.383 44.95 116.557 45.364 116.861 45.6687C117.17 45.9734 117.557 46.1257 118.021 46.1257C118.674 46.1257 119.205 45.8621 119.615 45.3347L120.383 46.0671C120.129 46.446 119.789 46.741 119.363 46.9519C118.941 47.1589 118.467 47.2625 117.939 47.2625ZM117.77 41.8308C117.379 41.8308 117.062 41.9675 116.82 42.241C116.582 42.5144 116.43 42.8953 116.363 43.3835H119.076V43.2781C119.045 42.8015 118.918 42.4421 118.695 42.2C118.473 41.9539 118.164 41.8308 117.77 41.8308ZM123.869 42.8914L125.076 40.8054H126.658L124.719 43.9285L126.723 47.1453H125.152L123.887 44.9773L122.627 47.1453H121.045L123.049 43.9285L121.115 40.8054H122.686L123.869 42.8914ZM132.998 47.1453H131.574V44.5847H129.107V47.1453H127.684V40.8054H129.107V43.448H131.574V40.8054H132.998V47.1453ZM134.252 43.9167C134.252 43.2957 134.375 42.7371 134.621 42.241C134.867 41.741 135.213 41.3582 135.658 41.0925C136.104 40.823 136.615 40.6882 137.193 40.6882C138.049 40.6882 138.742 40.9636 139.273 41.5144C139.809 42.0652 140.098 42.7957 140.141 43.7058L140.146 44.0398C140.146 44.6648 140.025 45.2234 139.783 45.7156C139.545 46.2078 139.201 46.5886 138.752 46.8582C138.307 47.1277 137.791 47.2625 137.205 47.2625C136.311 47.2625 135.594 46.9656 135.055 46.3718C134.52 45.7742 134.252 44.9792 134.252 43.9871V43.9167ZM135.676 44.0398C135.676 44.6921 135.811 45.2039 136.08 45.575C136.35 45.9421 136.725 46.1257 137.205 46.1257C137.686 46.1257 138.059 45.9382 138.324 45.5632C138.594 45.1882 138.729 44.6394 138.729 43.9167C138.729 43.2761 138.59 42.7683 138.312 42.3933C138.039 42.0183 137.666 41.8308 137.193 41.8308C136.729 41.8308 136.359 42.0164 136.086 42.3875C135.812 42.7546 135.676 43.3054 135.676 44.0398ZM146.645 40.8054V47.1453H145.221V41.9539H143.428L143.311 44.1628C143.236 45.2253 143.031 45.989 142.695 46.4539C142.363 46.9148 141.854 47.1453 141.166 47.1453H140.727L140.721 45.9617L141.014 45.9324C141.326 45.8894 141.553 45.7 141.693 45.364C141.838 45.0242 141.93 44.407 141.969 43.5125L142.086 40.8054H146.645ZM147.893 43.9167C147.893 43.2957 148.016 42.7371 148.262 42.241C148.508 41.741 148.854 41.3582 149.299 41.0925C149.744 40.823 150.256 40.6882 150.834 40.6882C151.689 40.6882 152.383 40.9636 152.914 41.5144C153.449 42.0652 153.738 42.7957 153.781 43.7058L153.787 44.0398C153.787 44.6648 153.666 45.2234 153.424 45.7156C153.186 46.2078 152.842 46.5886 152.393 46.8582C151.947 47.1277 151.432 47.2625 150.846 47.2625C149.951 47.2625 149.234 46.9656 148.695 46.3718C148.16 45.7742 147.893 44.9792 147.893 43.9871V43.9167ZM149.316 44.0398C149.316 44.6921 149.451 45.2039 149.721 45.575C149.99 45.9421 150.365 46.1257 150.846 46.1257C151.326 46.1257 151.699 45.9382 151.965 45.5632C152.234 45.1882 152.369 44.6394 152.369 43.9167C152.369 43.2761 152.23 42.7683 151.953 42.3933C151.68 42.0183 151.307 41.8308 150.834 41.8308C150.369 41.8308 150 42.0164 149.727 42.3875C149.453 42.7546 149.316 43.3054 149.316 44.0398ZM159.213 41.9539H156.459V47.1453H155.041V40.8054H159.213V41.9539ZM163.977 40.8054H165.395V47.1453H163.977V42.9148L161.492 47.1453H160.074V40.8054H161.492V45.0359L163.977 40.8054ZM170.867 40.8054H172.285V47.1453H170.867V42.9148L168.383 47.1453H166.965V40.8054H168.383V45.0359L170.867 40.8054Z" fill="#788891"/>
<path d="M32.0668 13.9884C33.1952 13.9884 34.1485 14.7163 34.5073 15.7235H43.4929C43.8517 14.7163 44.805 13.9884 45.9334 13.9884C47.3669 13.9884 48.5334 15.1561 48.5334 16.5911C48.5334 18.026 47.3669 19.1938 45.9334 19.1938C44.805 19.1938 43.8517 18.4659 43.4929 17.4587H34.5064C34.1476 18.4659 33.1943 19.1938 32.0659 19.1938C30.6324 19.1938 29.4659 18.026 29.4659 16.5911C29.4659 15.1561 30.6333 13.9884 32.0668 13.9884ZM45.9334 17.4587C46.411 17.4587 46.8001 17.07 46.8001 16.5911C46.8001 16.1122 46.411 15.7235 45.9334 15.7235C45.4559 15.7235 45.0668 16.1122 45.0668 16.5911C45.0668 17.07 45.4559 17.4587 45.9334 17.4587ZM32.0668 17.4587C32.5443 17.4587 32.9334 17.07 32.9334 16.5911C32.9334 16.1122 32.5443 15.7235 32.0668 15.7235C31.5892 15.7235 31.2001 16.1122 31.2001 16.5911C31.2001 17.07 31.5892 17.4587 32.0668 17.4587Z" fill="#00B2FF"/>
<path d="M25.1333 19.3535V13.9885C25.1333 13.7577 25.2243 13.5373 25.3872 13.3751L28.8539 9.90485C29.0159 9.74175 29.2369 9.65066 29.4666 9.65066H32.2261C32.5849 8.64341 33.5382 7.91553 34.6666 7.91553C36.1001 7.91553 37.2666 9.08327 37.2666 10.5182C37.2666 11.9532 36.1001 13.1209 34.6666 13.1209C33.5382 13.1209 32.5849 12.393 32.2261 11.3858H29.8254L26.8666 14.3477V19.3535C27.8728 19.7127 28.5999 20.667 28.5999 21.7966C28.5999 23.2315 27.4334 24.3993 25.9999 24.3993C24.5665 24.3993 23.3999 23.2315 23.3999 21.7966C23.3999 20.667 24.1271 19.7127 25.1333 19.3535ZM34.6666 11.3858C35.1441 11.3858 35.5333 10.9971 35.5333 10.5182C35.5333 10.0393 35.1441 9.65066 34.6666 9.65066C34.1891 9.65066 33.7999 10.0393 33.7999 10.5182C33.7999 10.9971 34.1891 11.3858 34.6666 11.3858ZM25.9999 22.6641C26.4775 22.6641 26.8666 22.2755 26.8666 21.7966C26.8666 21.3177 26.4775 20.929 25.9999 20.929C25.5224 20.929 25.1333 21.3177 25.1333 21.7966C25.1333 22.2755 25.5224 22.6641 25.9999 22.6641Z" fill="#00B2FF"/>
<path d="M9.53333 22.6641C9.93373 22.6641 10.3081 22.7621 10.647 22.9252L12.1333 21.4374V13.1209C12.1333 12.8901 12.2243 12.6698 12.3873 12.5075L21.0609 3.82494C20.8979 3.48572 20.8 3.11093 20.8 2.71012C20.8 1.27516 21.9665 0.107422 23.4 0.107422C24.8335 0.107422 26 1.27516 26 2.71012C26 4.14507 24.8335 5.31281 23.4 5.31281C22.9996 5.31281 22.6252 5.21477 22.2863 5.05167L13.8667 13.4801V21.7965C13.8667 22.0273 13.7757 22.2477 13.6127 22.4099L11.8725 24.152C12.0354 24.4912 12.1333 24.866 12.1333 25.2668C12.1333 26.7017 10.9668 27.8695 9.53333 27.8695C8.09986 27.8695 6.93333 26.7017 6.93333 25.2668C6.93333 23.8318 8.09986 22.6641 9.53333 22.6641ZM23.4 3.57768C23.8775 3.57768 24.2667 3.18901 24.2667 2.71012C24.2667 2.23122 23.8775 1.84255 23.4 1.84255C22.9225 1.84255 22.5333 2.23122 22.5333 2.71012C22.5333 3.18901 22.9225 3.57768 23.4 3.57768ZM9.53333 26.1344C10.0109 26.1344 10.4 25.7457 10.4 25.2668C10.4 24.7879 10.0109 24.3992 9.53333 24.3992C9.0558 24.3992 8.66667 24.7879 8.66667 25.2668C8.66667 25.7457 9.0558 26.1344 9.53333 26.1344Z" fill="#00B2FF"/>
<path d="M1.73328 12.413V8.78307C1.73328 8.55229 1.82428 8.33193 1.98722 8.1697L8.05388 2.09675C8.21595 1.93365 8.43695 1.84255 8.66662 1.84255H13.1594C13.5182 0.835308 14.4716 0.107422 15.6 0.107422C17.0334 0.107422 18.2 1.27516 18.2 2.71012C18.2 4.14507 17.0334 5.31281 15.6 5.31281C14.4716 5.31281 13.5182 4.58492 13.1594 3.57768H9.02542L3.46662 9.14224V12.413C4.47282 12.7721 5.19995 13.7264 5.19995 14.856C5.19995 16.291 4.03342 17.4587 2.59995 17.4587C1.16648 17.4587 -4.95911e-05 16.291 -4.95911e-05 14.856C-4.95911e-05 13.7264 0.727085 12.7721 1.73328 12.413ZM15.6 3.57768C16.0775 3.57768 16.4666 3.18901 16.4666 2.71012C16.4666 2.23122 16.0775 1.84255 15.6 1.84255C15.1224 1.84255 14.7333 2.23122 14.7333 2.71012C14.7333 3.18901 15.1224 3.57768 15.6 3.57768ZM2.59995 15.7236C3.07748 15.7236 3.46662 15.3349 3.46662 14.856C3.46662 14.3771 3.07748 13.9885 2.59995 13.9885C2.12242 13.9885 1.73328 14.3771 1.73328 14.856C1.73328 15.3349 2.12242 15.7236 2.59995 15.7236Z" fill="#00B2FF"/>
<path d="M13.8658 47.1163V34.6503C12.8604 34.2911 12.1333 33.3368 12.1333 32.2072C12.1333 30.7723 13.2998 29.6046 14.7333 29.6046C15.8617 29.6046 16.815 30.3324 17.1738 31.3397H26.1594C26.5182 30.3324 27.4716 29.6046 28.6 29.6046C29.7284 29.6046 30.6817 30.3324 31.0405 31.3397H36.0412L39.2608 28.1167C39.0979 27.7775 39 27.4027 39 27.0019C39 25.5669 40.1665 24.3992 41.6 24.3992C43.0334 24.3992 44.2 25.5669 44.2 27.0019C44.2 28.4368 43.0334 29.6046 41.6 29.6046C41.1996 29.6046 40.8252 29.5065 40.4863 29.3434L37.0127 32.8206C36.8506 32.9837 36.6296 33.0748 36.4 33.0748H31.0405C30.6817 34.0821 29.7284 34.8099 28.6 34.8099C27.4716 34.8099 26.5182 34.0821 26.1594 33.0748H17.173C16.9112 33.8096 16.3332 34.3883 15.5991 34.6503V47.1163C16.6053 47.4755 17.3324 48.4298 17.3324 49.5594C17.3324 50.9944 16.1659 52.1621 14.7324 52.1621C13.299 52.1621 12.1324 50.9944 12.1324 49.5594C12.1324 48.4298 12.8596 47.4755 13.8658 47.1163ZM41.6 27.8694C42.0775 27.8694 42.4666 27.4808 42.4666 27.0019C42.4666 26.523 42.0775 26.1343 41.6 26.1343C41.1224 26.1343 40.7333 26.523 40.7333 27.0019C40.7333 27.4808 41.1224 27.8694 41.6 27.8694ZM28.6 33.0748C29.0775 33.0748 29.4666 32.6861 29.4666 32.2072C29.4666 31.7284 29.0775 31.3397 28.6 31.3397C28.1224 31.3397 27.7333 31.7284 27.7333 32.2072C27.7333 32.6861 28.1224 33.0748 28.6 33.0748ZM14.7333 50.4261C15.2108 50.4261 15.6 50.0374 15.6 49.5585C15.6 49.0796 15.2108 48.691 14.7333 48.691C14.2558 48.691 13.8666 49.0796 13.8666 49.5585C13.8666 50.0374 14.2558 50.4261 14.7333 50.4261ZM14.7333 33.0748C15.2108 33.0748 15.6 32.6861 15.6 32.2072C15.6 31.7284 15.2108 31.3397 14.7333 31.3397C14.2558 31.3397 13.8666 31.7284 13.8666 32.2072C13.8666 32.6861 14.2558 33.0748 14.7333 33.0748Z" fill="#00B2FF"/>
<path d="M18.2 17.6183V14.856C18.2 14.6252 18.291 14.4049 18.4539 14.2427L28.8609 3.82494C28.6979 3.48572 28.6 3.11093 28.6 2.71012C28.6 1.27516 29.7665 0.107422 31.2 0.107422C32.3284 0.107422 33.2817 0.835308 33.6405 1.84255H37.2667C37.7451 1.84255 38.1333 2.23035 38.1333 2.71012V4.95364L41.353 8.17664C41.6919 8.01354 42.0663 7.9155 42.4667 7.9155C43.9001 7.9155 45.0667 9.08324 45.0667 10.5182C45.0667 11.9531 43.9001 13.1209 42.4667 13.1209C41.0332 13.1209 39.8667 11.9531 39.8667 10.5182C39.8667 10.1174 39.9646 9.74259 40.1275 9.40338L36.6539 5.92618C36.491 5.76394 36.4 5.54358 36.4 5.31281V3.57768H33.6405C33.2817 4.58492 32.3284 5.31281 31.2 5.31281C30.7996 5.31281 30.4252 5.21477 30.0863 5.05167L19.9333 15.2152V17.6183C20.9395 17.9775 21.6667 18.9318 21.6667 20.0614C21.6667 21.4964 20.5001 22.6641 19.0667 22.6641C17.6332 22.6641 16.4667 21.4964 16.4667 20.0614C16.4667 18.9318 17.1938 17.9775 18.2 17.6183ZM42.4667 11.3858C42.9442 11.3858 43.3333 10.9971 43.3333 10.5182C43.3333 10.0393 42.9442 9.65063 42.4667 9.65063C41.9891 9.65063 41.6 10.0393 41.6 10.5182C41.6 10.9971 41.9891 11.3858 42.4667 11.3858ZM31.2 3.57768C31.6775 3.57768 32.0667 3.18901 32.0667 2.71012C32.0667 2.23122 31.6775 1.84255 31.2 1.84255C30.7225 1.84255 30.3333 2.23122 30.3333 2.71012C30.3333 3.18901 30.7225 3.57768 31.2 3.57768ZM19.0667 20.929C19.5442 20.929 19.9333 20.5403 19.9333 20.0614C19.9333 19.5825 19.5442 19.1938 19.0667 19.1938C18.5891 19.1938 18.2 19.5825 18.2 20.0614C18.2 20.5403 18.5891 20.929 19.0667 20.929Z" fill="#00B2FF"/>
<path d="M20.8 24.3992C21.9284 24.3992 22.8817 25.1271 23.2405 26.1344H33.4412L38.3873 21.1832C38.5493 21.0201 38.7703 20.929 39 20.929H48.1745L50.2667 18.8347V11.7449L43.5803 5.05167C43.2415 5.21477 42.8671 5.31281 42.4667 5.31281C41.0332 5.31281 39.8667 4.14507 39.8667 2.71012C39.8667 1.27516 41.0332 0.107422 42.4667 0.107422C43.9001 0.107422 45.0667 1.27516 45.0667 2.71012C45.0667 3.11093 44.9687 3.48572 44.8058 3.82494L51.7461 10.7724C51.909 10.9346 52 11.155 52 11.3858V19.1938C52 19.4246 51.909 19.645 51.7461 19.8072L49.1461 22.4099C48.984 22.573 48.763 22.6641 48.5333 22.6641H39.3588L34.4127 27.6153C34.2507 27.7784 34.0297 27.8695 33.8 27.8695H23.2405C22.8817 28.8767 21.9284 29.6046 20.8 29.6046C19.3665 29.6046 18.2 28.4369 18.2 27.0019C18.2 25.567 19.3665 24.3992 20.8 24.3992ZM42.4667 1.84255C41.9891 1.84255 41.6 2.23122 41.6 2.71012C41.6 3.18901 41.9891 3.57768 42.4667 3.57768C42.9442 3.57768 43.3333 3.18901 43.3333 2.71012C43.3333 2.23122 42.9442 1.84255 42.4667 1.84255ZM20.8 27.8695C21.2775 27.8695 21.6667 27.4808 21.6667 27.0019C21.6667 26.523 21.2775 26.1344 20.8 26.1344C20.3225 26.1344 19.9333 26.523 19.9333 27.0019C19.9333 27.4808 20.3225 27.8695 20.8 27.8695Z" fill="#00B2FF"/>
<path d="M2.59997 20.929C3.00037 20.929 3.37477 21.027 3.71363 21.1901L6.9333 17.9671V12.9613C5.9271 12.6021 5.19997 11.6478 5.19997 10.5182C5.19997 9.08327 6.3665 7.91553 7.79997 7.91553C9.23343 7.91553 10.4 9.08327 10.4 10.5182C10.4 11.6478 9.67283 12.6021 8.66663 12.9613V18.3263C8.66663 18.5571 8.57563 18.7774 8.4127 18.9397L4.9391 22.4169C5.10204 22.7561 5.19997 23.1309 5.19997 23.5317C5.19997 24.6613 4.47283 25.6156 3.46663 25.9748V26.6428L10.146 33.3291C10.309 33.4913 10.4 33.7117 10.4 33.9425V34.9697C11.4062 35.3288 12.1333 36.2832 12.1333 37.4127C12.1333 38.5423 11.4062 39.4966 10.4 39.8558V41.911C11.4062 42.2702 12.1333 43.2245 12.1333 44.3541C12.1333 45.7891 10.9668 46.9568 9.5333 46.9568C8.09983 46.9568 6.9333 45.7891 6.9333 44.3541C6.9333 43.2245 7.66043 42.2702 8.66663 41.911V39.8558C7.66043 39.4966 6.9333 38.5423 6.9333 37.4127C6.9333 36.2832 7.66043 35.3288 8.66663 34.9697V34.3016L1.98723 27.6153C1.8243 27.4531 1.7333 27.2327 1.7333 27.0019V25.9748C0.7271 25.6156 -3.24249e-05 24.6613 -3.24249e-05 23.5317C-3.24249e-05 22.0967 1.1665 20.929 2.59997 20.929ZM7.79997 11.3858C8.2775 11.3858 8.66663 10.9971 8.66663 10.5182C8.66663 10.0393 8.2775 9.65066 7.79997 9.65066C7.32243 9.65066 6.9333 10.0393 6.9333 10.5182C6.9333 10.9971 7.32243 11.3858 7.79997 11.3858ZM9.5333 45.2208C10.0108 45.2208 10.4 44.8321 10.4 44.3532C10.4 43.8743 10.0108 43.4857 9.5333 43.4857C9.05577 43.4857 8.66663 43.8743 8.66663 44.3532C8.66663 44.8321 9.05577 45.2208 9.5333 45.2208ZM9.5333 38.2803C10.0108 38.2803 10.4 37.8916 10.4 37.4127C10.4 36.9338 10.0108 36.5452 9.5333 36.5452C9.05577 36.5452 8.66663 36.9338 8.66663 37.4127C8.66663 37.8916 9.05577 38.2803 9.5333 38.2803ZM2.59997 24.3993C3.0775 24.3993 3.46663 24.0106 3.46663 23.5317C3.46663 23.0528 3.0775 22.6641 2.59997 22.6641C2.12243 22.6641 1.7333 23.0528 1.7333 23.5317C1.7333 24.0106 2.12243 24.3993 2.59997 24.3993Z" fill="#00B2FF"/>
</symbol><symbol id="icon-stopwatch" viewBox="0 0 29 35">
<path d="M3.18833 11.6622L1.70191 10.1904C0.894381 9.39114 0.894381 8.09017 1.70191 7.29042C2.50945 6.49094 3.82351 6.49094 4.63104 7.29042L6.21806 8.86162C7.87358 7.72007 9.7608 6.92993 11.7381 6.55075V4.51172H10.3571C9.97576 4.51172 9.66667 4.2057 9.66667 3.82812V2.05078C9.66667 0.919914 10.5958 0 11.7381 0H17.2619C18.4042 0 19.3333 0.919914 19.3333 2.05078V3.82812C19.3333 4.2057 19.0242 4.51172 18.6429 4.51172H17.2619V6.55075C19.2389 6.92966 21.1264 7.72007 22.7819 8.86162L24.369 7.29042C25.1762 6.49094 26.4903 6.49094 27.2981 7.29042C28.1056 8.0899 28.1056 9.39087 27.2981 10.1904L25.8117 11.6622C27.872 14.203 29 17.3678 29 20.6445C29 28.5601 22.4952 35 14.5 35C6.50477 35 -1.90735e-06 28.5601 -1.90735e-06 20.6445C-1.90735e-06 17.3678 1.12796 14.203 3.18833 11.6622ZM3.65467 8.25706C3.38522 7.99057 2.94747 7.99084 2.67829 8.25706C2.40938 8.52356 2.40938 8.95721 2.67829 9.22371L4.10509 10.636C4.4266 10.3092 4.76374 9.99756 5.11438 9.70249L3.65467 8.25706ZM17.9524 2.05078C17.9524 1.67374 17.6427 1.36719 17.2619 1.36719H11.7381C11.3573 1.36719 11.0476 1.67374 11.0476 2.05078V3.14453H17.9524V2.05078ZM13.119 4.51172V6.35368C14.0342 6.26877 14.9655 6.26877 15.881 6.35368V4.51172H13.119ZM26.3217 8.25706C26.0525 7.99084 25.6145 7.99057 25.3453 8.25706L23.8856 9.70249C24.2363 9.99756 24.5734 10.3092 24.8949 10.636L26.3217 9.22371C26.5906 8.95721 26.5906 8.52356 26.3217 8.25706ZM14.5 33.6328C21.7338 33.6328 27.619 27.8062 27.619 20.6445C27.619 17.4853 26.4606 14.4415 24.3574 12.0732C23.778 11.4208 23.1315 10.8248 22.4359 10.3009C20.6927 8.98766 18.6294 8.12328 16.4689 7.80098C15.8224 7.70512 15.16 7.65625 14.5 7.65625C13.84 7.65625 13.1776 7.70512 12.5313 7.80098C10.3706 8.12328 8.30729 8.98766 6.56384 10.3009C5.86851 10.8248 5.22199 11.4208 4.64264 12.0732C2.53939 14.4415 1.38095 17.4853 1.38095 20.6445C1.38095 27.8062 7.26618 33.6328 14.5 33.6328Z"/>
<path d="M14.5001 22.6953C13.3579 22.6953 12.4287 21.7754 12.4287 20.6445C12.4287 19.7535 13.0059 18.9935 13.8096 18.7112V13.8086C13.8096 13.431 14.1187 13.125 14.5001 13.125C14.8815 13.125 15.1906 13.431 15.1906 13.8086V18.7112C15.9943 18.9935 16.5715 19.7535 16.5715 20.6445C16.5715 21.7754 15.6424 22.6953 14.5001 22.6953ZM14.5001 19.9609C14.1193 19.9609 13.8096 20.2675 13.8096 20.6445C13.8096 21.0216 14.1193 21.3281 14.5001 21.3281C14.8809 21.3281 15.1906 21.0216 15.1906 20.6445C15.1906 20.2675 14.8809 19.9609 14.5001 19.9609Z"/>
<path d="M7.14458 13.4326C7.15536 13.42 7.16615 13.4075 7.17829 13.3957C7.19124 13.3826 7.20499 13.3709 7.21875 13.3591C8.43571 12.1671 9.93912 11.2851 11.5706 10.8082C11.9366 10.7014 12.3205 10.9081 12.4283 11.2702C12.5362 11.6323 12.3275 12.0125 11.9617 12.1193C10.7529 12.4729 9.62517 13.0838 8.66389 13.8996L9.12969 14.3608C9.39914 14.6278 9.39914 15.0607 9.12969 15.3277C8.99484 15.4612 8.81817 15.528 8.64124 15.528C8.46457 15.528 8.28791 15.4612 8.15305 15.3277L7.68617 14.8655C6.43684 16.3037 5.69485 18.0741 5.55028 19.9609H6.21432C6.5957 19.9609 6.9048 20.2672 6.9048 20.6445C6.9048 21.0221 6.5957 21.3281 6.21432 21.3281H5.55028C5.69485 23.2152 6.43684 24.9853 7.68617 26.4235L8.15305 25.9613C8.42277 25.6945 8.85998 25.6945 9.12969 25.9613C9.39941 26.2283 9.39941 26.6612 9.12969 26.9282L8.66282 27.3904C10.1155 28.6273 11.9037 29.3619 13.8096 29.5053V28.8476C13.8096 28.47 14.1187 28.164 14.5 28.164C14.8814 28.164 15.1905 28.47 15.1905 28.8476V29.505C17.0963 29.3619 18.8846 28.6273 20.3373 27.3904L19.8704 26.9282C19.6007 26.6612 19.6007 26.2283 19.8704 25.9613C20.1401 25.6945 20.5773 25.6945 20.847 25.9613L21.3139 26.4235C22.5632 24.9853 23.3052 23.2149 23.4498 21.3281H22.7857C22.4044 21.3281 22.0953 21.0221 22.0953 20.6445C22.0953 20.2669 22.4044 19.9609 22.7857 19.9609H23.4498C23.3052 18.0741 22.5632 16.3037 21.3139 14.8655L20.847 15.3277C20.7122 15.4612 20.5355 15.528 20.3588 15.528C20.1819 15.528 20.0052 15.4612 19.8704 15.3277C19.6009 15.0607 19.6009 14.6278 19.8704 14.3608L20.3362 13.8996C19.3749 13.0836 18.2472 12.4729 17.0383 12.1193C16.6726 12.0125 16.4638 11.6323 16.5717 11.2702C16.6796 10.9081 17.0632 10.7017 17.4294 10.8082C19.0607 11.2849 20.5635 12.1666 21.7802 13.3581C21.7945 13.3701 21.8086 13.3824 21.8218 13.3955C21.8336 13.4072 21.8442 13.4195 21.855 13.4318C23.7913 15.3667 24.8572 17.9259 24.8572 20.6445C24.8572 23.3628 23.7913 25.9218 21.8555 27.8564C21.8447 27.869 21.8339 27.8815 21.8218 27.8933C21.8099 27.9053 21.7975 27.9157 21.7851 27.9264C19.8307 29.8431 17.246 30.8984 14.5 30.8984C11.7543 30.8984 9.16961 29.8434 7.21551 27.9269C7.20284 27.916 7.19016 27.9053 7.17829 27.8933C7.16642 27.8818 7.1559 27.8692 7.14512 27.8572C5.20882 25.9223 4.14289 23.3631 4.14289 20.6445C4.14289 17.9261 5.20882 15.3672 7.14458 13.4326Z"/>
<path d="M14.5 11.7578C14.1188 11.7578 13.8095 11.4515 13.8095 11.0742C13.8095 10.6969 14.1188 10.3906 14.5 10.3906C14.8811 10.3906 15.1904 10.6969 15.1904 11.0742C15.1904 11.4515 14.8811 11.7578 14.5 11.7578Z"/>
</symbol><symbol id="icon-tag" viewBox="0 0 35 35">
<path d="M11.0707 8.58469C10.9436 8.45752 10.7672 8.38437 10.5874 8.38437C10.4076 8.38437 10.2312 8.45752 10.1041 8.58469C9.97702 8.71186 9.90381 8.88825 9.90381 9.06807C9.90381 9.24788 9.97695 9.42427 10.1041 9.55144C10.2312 9.67868 10.4076 9.75176 10.5874 9.75176C10.7672 9.75176 10.9436 9.67861 11.0707 9.55144C11.1978 9.42427 11.271 9.24788 11.271 9.06807C11.271 8.88825 11.1979 8.71186 11.0707 8.58469Z"/>
<path d="M34.8 2.85866L33.9548 2.01231L34.7998 1.16719C35.0667 0.900207 35.0667 0.46729 34.7998 0.200238C34.5328 -0.0667459 34.1 -0.0667459 33.833 0.200238L32.9885 1.04481L32.1556 0.210835C32.0275 0.0825735 31.8537 0.0103751 31.6724 0.0103067L20.1023 0.00387998C20.1016 0.00387998 20.101 0.00387998 20.1004 0.00387998C19.1868 0.00387998 18.3278 0.359676 17.6818 1.00584L11.9081 6.78034C11.6412 7.04732 11.6412 7.48024 11.9081 7.74729C12.1751 8.01428 12.6079 8.01428 12.8749 7.74729L18.6486 1.97279C19.0364 1.58486 19.5519 1.37134 20.1004 1.37134C20.1008 1.37134 20.1012 1.37134 20.1016 1.37134L31.3884 1.37763L32.0219 2.01183L29.4854 4.54862C28.4099 3.9043 26.9919 4.0448 26.066 4.97066C25.5371 5.49971 25.2459 6.20303 25.2459 6.95113C25.2459 7.69923 25.5371 8.40255 26.066 8.93159C26.612 9.47759 27.3291 9.75059 28.0463 9.75059C28.7634 9.75059 29.4805 9.47759 30.0264 8.93159C30.9508 8.00703 31.0922 6.59164 30.4514 5.51646L32.9881 2.97933L33.6327 3.62481L33.6265 14.8981C33.6261 15.4461 33.4126 15.9614 33.025 16.349L16.3438 33.0327C15.956 33.4205 15.4403 33.6341 14.892 33.6341C14.3436 33.6341 13.8279 33.4205 13.4401 33.0327L1.96861 21.5593C1.58074 21.1715 1.36719 20.6558 1.36719 20.1073C1.36719 19.5588 1.58074 19.0431 1.96861 18.6553L9.33734 11.2854C9.60429 11.0184 9.60429 10.5855 9.33734 10.3185C9.07033 10.0515 8.63762 10.0515 8.37054 10.3185L1.00181 17.6883C0.355811 18.3344 0 19.1935 0 20.1073C0 21.0211 0.355811 21.8802 1.00181 22.5263L12.4733 33.9996C13.1402 34.6665 14.016 35 14.892 35C15.7679 35 16.6437 34.6665 17.3106 33.9996L33.9918 17.3158C34.6373 16.6702 34.993 15.8118 34.9936 14.8987L35 3.34217C35.0001 3.16085 34.9282 2.98692 34.8 2.85866ZM29.0596 7.96457C28.7889 8.23532 28.429 8.38443 28.0463 8.38443C27.6634 8.38443 27.3036 8.23532 27.0329 7.96457C26.474 7.40572 26.474 6.49633 27.0329 5.93748C27.3123 5.65798 27.6792 5.51831 28.0463 5.51831C28.1845 5.51831 28.3227 5.5382 28.4562 5.57786L27.6672 6.36698C27.4003 6.63396 27.4003 7.06688 27.6672 7.33393C27.8007 7.46746 27.9757 7.53419 28.1506 7.53419C28.3255 7.53419 28.5005 7.46746 28.634 7.33393L29.4208 6.547C29.5629 7.03372 29.4427 7.5815 29.0596 7.96457Z"/>
<path d="M29.2004 13.7645L21.2339 5.79669C20.1785 4.7412 18.4613 4.74134 17.4061 5.79669L4.79918 18.4056C4.28792 18.9168 4.00635 19.5966 4.00635 20.3197C4.00635 21.0428 4.28785 21.7227 4.79911 22.2339L12.7657 30.2016C13.277 30.7129 13.9566 30.9946 14.6796 30.9946C15.4025 30.9946 16.0823 30.713 16.5934 30.2017L29.2004 17.5928C29.7117 17.0815 29.9932 16.4017 29.9932 15.6786C29.9932 14.9556 29.7117 14.2758 29.2004 13.7645ZM28.2336 16.6258L15.6267 29.2349C15.3738 29.4878 15.0374 29.6272 14.6796 29.6272C14.3219 29.6272 13.9855 29.4878 13.7326 29.2348L5.76592 21.267C5.51292 21.014 5.3736 20.6776 5.3736 20.3198C5.37354 19.9619 5.51292 19.6255 5.76592 19.3725L18.3729 6.76365C18.634 6.50247 18.977 6.37189 19.32 6.37189C19.663 6.37189 20.006 6.50254 20.2671 6.76365L28.2336 14.7314C28.4866 14.9844 28.6259 15.3208 28.6259 15.6786C28.6259 16.0364 28.4866 16.3729 28.2336 16.6258Z"/>
<path d="M22.2904 13.677C22.5574 13.41 22.5574 12.9771 22.2904 12.71C22.0234 12.443 21.5907 12.443 21.3236 12.71L20.93 13.1037C19.879 12.4544 18.5304 12.5415 17.6779 13.394C17.1808 13.8912 16.9265 14.5662 16.9618 15.2949C16.9959 15.9985 17.2989 16.6702 17.8148 17.1862C17.8149 17.1863 17.8149 17.1863 17.8149 17.1864C18.3648 17.7365 18.4261 18.5701 17.9517 19.0446C17.4771 19.5191 16.6435 19.4577 16.0935 18.9077C15.5435 18.3575 15.4821 17.5238 15.9566 17.0492C16.2235 16.7822 16.2235 16.3493 15.9566 16.0823C15.6896 15.8153 15.2569 15.8153 14.9898 16.0823C14.1373 16.9348 14.0503 18.2836 14.6995 19.3349L14.2324 19.8019C13.9655 20.0689 13.9655 20.5018 14.2324 20.7689C14.3663 20.9025 14.5412 20.9693 14.7161 20.9693C14.8911 20.9693 15.066 20.9025 15.1995 20.769L15.6668 20.3016C16.1261 20.5853 16.6419 20.729 17.1486 20.729C17.8013 20.7289 18.4387 20.4915 18.9186 20.0115C19.9259 19.004 19.8647 17.3033 18.7822 16.22C18.782 16.2198 18.7819 16.2196 18.7817 16.2194C18.5065 15.9441 18.3451 15.5923 18.3275 15.2287C18.3112 14.8901 18.4238 14.582 18.6448 14.361C19.1192 13.8864 19.9526 13.9478 20.5027 14.4977C20.5028 14.4978 20.5028 14.4979 20.5028 14.4979C20.5029 14.498 20.503 14.498 20.503 14.498C21.0529 15.0482 21.1142 15.8817 20.6397 16.3563C20.3727 16.6233 20.3727 17.0562 20.6397 17.3232C20.7732 17.4568 20.9481 17.5235 21.1231 17.5235C21.298 17.5235 21.4729 17.4568 21.6064 17.3232C22.4589 16.4706 22.546 15.1218 21.8968 14.0706L22.2904 13.677Z"/>
<path d="M15.3719 25.0116L11.8609 21.5C11.5939 21.2332 11.1612 21.2331 10.8941 21.5C10.6271 21.767 10.6271 22.1999 10.8941 22.467L14.4051 25.9786C14.5386 26.112 14.7136 26.1788 14.8885 26.1788C15.0634 26.1788 15.2384 26.112 15.3719 25.9786C15.6388 25.7116 15.6388 25.2787 15.3719 25.0116Z"/>
<path d="M9.98812 19.6269C9.86104 19.4998 9.68528 19.4266 9.50488 19.4266C9.3251 19.4266 9.14941 19.4998 9.02158 19.6269C8.89443 19.7541 8.82129 19.9305 8.82129 20.111C8.82129 20.2908 8.89437 20.4672 9.02158 20.5944C9.14873 20.7215 9.3251 20.7947 9.50488 20.7947C9.68535 20.7947 9.86104 20.7215 9.98812 20.5944C10.1159 20.4665 10.1891 20.2908 10.1891 20.111C10.1891 19.9305 10.1159 19.7548 9.98812 19.6269Z"/>
</symbol></svg>